<?xml version="1.0" encoding="utf-8"?>
<!-- Generator: Adobe Illustrator 22.0.1, SVG Export Plug-In . SVG Version: 6.00 Build 0)  -->
<svg version="1.1" id="Layer_1" xmlns="http://www.w3.org/2000/svg" xmlns:xlink="http://www.w3.org/1999/xlink" x="0px" y="0px"
	 viewBox="0 0 47 30" style="enable-background:new 0 0 47 30;" xml:space="preserve">
<style type="text/css">
	.st0{fill:#3F59A7;}
</style>
<g>
	<g>
		<path class="st0" d="M15,12V18c0,0,5.7,0,8.1,0c-1.3,3.9-3.2,5.9-8.1,5.9c-4.9,0-8.7-4-8.7-8.9c0-4.9,3.8-8.9,8.7-8.9
			c2.6,0,4.3,0.9,5.8,2.2C22,7,21.9,6.9,25,3.9C22.3,1.5,18.8,0,15,0C6.7,0,0.1,6.7,0.1,15c0,8.3,6.7,15,14.9,15
			c12.3,0,15.3-10.8,14.3-18C26.4,12,15,12,15,12z M41.8,12.3V7.1h-3.7v5.2h-5.3V16h5.3v5.3h3.7V16H47v-3.7H41.8z"/>
	</g>
</g>
</svg>
