<?xml version="1.0" encoding="utf-8"?>
<!-- Generator: Adobe Illustrator 22.0.1, SVG Export Plug-In . SVG Version: 6.00 Build 0)  -->
<svg version="1.1" id="Layer_1" xmlns="http://www.w3.org/2000/svg" xmlns:xlink="http://www.w3.org/1999/xlink" x="0px" y="0px"
	 viewBox="0 0 200 200" style="enable-background:new 0 0 200 200;" xml:space="preserve">
<style type="text/css">
	.st0{display:none;}
	.st1{display:inline;fill:#010101;}
	.st2{display:inline;}
	.st3{fill:#010101;}
	.st4{fill:none;stroke:#010101;stroke-linecap:round;stroke-linejoin:round;stroke-miterlimit:10;}
	.st5{fill:#010101;stroke:#010101;stroke-linecap:round;stroke-linejoin:round;stroke-miterlimit:10;}
	.st6{display:inline;fill:none;}
	.st7{display:inline;fill:#010101;stroke:#010101;stroke-linecap:round;stroke-linejoin:round;stroke-miterlimit:10;}
	.st8{fill:none;}
	.st9{fill:#EF4036;}
</style>
<g class="st0">
	<path class="st1" d="M116.1,47.7H84.2c-17.2,0-17.4-23.9-17.4-24.2V1.4c0-23.9,17.2-24.2,17.4-24.2h31.9
		c17.2,0,17.4,18.5,17.4,18.6v27.6C133.5,47.4,116.3,47.7,116.1,47.7z M84.2-18.6c-0.6,0-14.4,0.3-14.4,20v22.1
		c0,0.8,0.2,20.1,14.4,20.1h31.9c0.6,0,14.4-0.3,14.4-20.1V-4.1c0-0.6-0.3-14.5-14.4-14.5L84.2-18.6L84.2-18.6z"/>
	<path class="st1" d="M121.4,171.4H78.9c-4.2,0-12.1-3.5-12.1-16.8V73.5c0-5.8,2.5-16.8,12.1-16.8h42.5c4.2,0,12.1,3.5,12.1,16.8
		v81.1C133.5,160.4,131,171.4,121.4,171.4z M78.9,60.8c-9,0-9.1,12.2-9.1,12.7v81.1c0,12.5,8.8,12.7,9.1,12.7h42.5
		c9,0,9.1-12.2,9.1-12.7V73.5c0-12.5-8.8-12.7-9.1-12.7H78.9z"/>
	<path class="st1" d="M48.2,164c-4.2,0-12.1-3.5-12.1-16.8V73.5c0-13.3,7.9-16.8,12.1-16.8c9.6,0,12.1,11,12.1,16.8v73.7
		C60.3,160.5,52.4,164,48.2,164z M48.2,60.8c-0.9,0-9.1,0.4-9.1,12.7v73.7c0,12.5,8.7,12.7,9.1,12.7c0.9,0,9.1-0.4,9.1-12.7V73.5
		C57.3,72.2,57,60.8,48.2,60.8z"/>
	<path class="st1" d="M152.1,164c-4.2,0-12.1-3.5-12.1-16.8V73.5c0-13.3,7.9-16.8,12.1-16.8c9.6,0,12.1,11,12.1,16.8v73.7
		C164.2,160.5,156.3,164,152.1,164z M152.1,60.8c-0.9,0-9.1,0.4-9.1,12.7v73.7c0,12.2,8.2,12.7,9.1,12.7c1,0,9.1-0.5,9.1-12.7V73.5
		C161.2,72.2,160.9,60.8,152.1,60.8z"/>
	<path class="st1" d="M100.2-19.7c-0.4,0-0.7-0.5-0.7-1v-28.2c0-0.6,0.3-1,0.7-1c0.4,0,0.7,0.5,0.7,1v28.2
		C100.9-20.1,100.6-19.7,100.2-19.7z"/>
	<path class="st1" d="M100.2-47.9c-2.9,0-5.2-3.3-5.2-7.3s2.3-7.3,5.2-7.3c2.9,0,5.2,3.3,5.2,7.3S103-47.9,100.2-47.9z M100.2-60.4
		c-2.1,0-3.7,2.3-3.7,5.2c0,2.9,1.7,5.2,3.7,5.2c2.1,0,3.7-2.3,3.7-5.2C103.9-58,102.2-60.4,100.2-60.4z"/>
	<path class="st1" d="M121.4,187.7c-0.4,0-0.7-0.5-0.7-1v-17.4c0-0.6,0.3-1,0.7-1c0.4,0,0.7,0.5,0.7,1v17.4
		C122.1,187.3,121.8,187.7,121.4,187.7z"/>
	<path class="st1" d="M139,262.6c-9.1,0-16.3-17.1-16.3-39s7.2-39,16.3-39c9.1,0,16.3,17.1,16.3,39S148.1,262.6,139,262.6z
		 M139,188.8c-7.2,0-13.3,16-13.3,34.9s6.1,34.9,13.3,34.9c7.2,0,13.3-16,13.3-34.9S146.2,188.8,139,188.8z"/>
	<ellipse class="st1" cx="139" cy="223.6" rx="4.4" ry="10.9"/>
	<path class="st1" d="M75.6,262.6c-9.1,0-16.3-17.1-16.3-39s7.2-39,16.3-39s16.3,17.1,16.3,39S84.8,262.6,75.6,262.6z M75.6,188.8
		c-7.2,0-13.3,16-13.3,34.9s6.1,34.9,13.3,34.9c7.2,0,13.3-16,13.3-34.9S82.9,188.8,75.6,188.8z"/>
	<ellipse class="st1" cx="75.6" cy="223.6" rx="4.4" ry="10.9"/>
	<path class="st1" d="M75.7,219.2c-0.4,0-0.7-0.5-0.7-1v-48.9c0-0.6,0.3-1,0.7-1c0.4,0,0.7,0.5,0.7,1v48.9
		C76.5,218.8,76.1,219.2,75.7,219.2z"/>
	<g class="st2">
		<path class="st3" d="M75.6,262.6H60.8c-9.1,0-16.3-17.1-16.3-39s7.2-39,16.3-39h14.8c0.8,0,1.5,0.9,1.5,2.1c0,1.1-0.7,2.1-1.5,2.1
			c-7.2,0-13.3,16-13.3,34.9s6.1,34.9,13.3,34.9c0.8,0,1.5,0.9,1.5,2.1S76.5,262.6,75.6,262.6z M60.8,188.8
			c-7.2,0-13.3,16-13.3,34.9s6.1,34.9,13.3,34.9h7.4c-5.3-6.4-8.9-19.4-8.9-34.9s3.6-28.5,8.9-34.9H60.8z"/>
		<path class="st3" d="M75.7,262.6L75.7,262.6c-0.9,0-1.5-0.9-1.5-2.1s0.7-2.1,1.5-2.1c0.8,0,1.5,0.9,1.5,2.1S76.5,262.6,75.7,262.6
			z"/>
	</g>
	<g class="st2">
		<path class="st3" d="M139,262.6h-14.8c-9.1,0-16.3-17.1-16.3-39s7.2-39,16.3-39H139c0.8,0,1.5,0.9,1.5,2.1c0,1.1-0.7,2.1-1.5,2.1
			c-7.2,0-13.3,16-13.3,34.9s6.1,34.9,13.3,34.9c0.8,0,1.5,0.9,1.5,2.1S139.8,262.6,139,262.6z M124.1,188.8
			c-7.2,0-13.3,16-13.3,34.9s6.1,34.9,13.3,34.9h7.4c-5.3-6.4-8.9-19.4-8.9-34.9s3.6-28.5,8.9-34.9H124.1z"/>
		<path class="st3" d="M139,262.6L139,262.6c-0.9,0-1.5-0.9-1.5-2.1s0.7-2.1,1.5-2.1s1.5,0.9,1.5,2.1S139.8,262.6,139,262.6z"/>
	</g>
</g>
<g class="st0">
	<path class="st1" d="M33.9,219.5c0,1.8-0.7,3.3-1.5,3.3l0,0c-0.8,0-1.5-1.5-1.5-3.3V-14.9c0-1.8,0.7-3.3,1.5-3.3l0,0
		c0.8,0,1.5,1.5,1.5,3.3V219.5z"/>
	<path class="st1" d="M48.6-10.2c-1.4,0.3-2.9,0.8-4.3,1.3c-0.5-2.1-1-4.2-1.6-6.2c-0.5,2.5-1,4.9-1.6,7.4c-1.4,0.6-2.9,1.3-4.3,2
		C38-5,39.1-4.3,40.2-3.5c-0.5,2.3-1,4.6-1.4,6.9c1.3-1.8,2.6-3.4,3.9-5.1C44-1,45.3-0.3,46.6,0.5c-0.5-1.9-1-3.9-1.4-5.8
		C46.3-7,47.5-8.6,48.6-10.2z"/>
	<path class="st1" d="M95.3-3.8c-1.4-0.5-2.9-1-4.3-1.4c-0.5-2.4-1.1-4.9-1.6-7.3c-0.5,2.1-1,4.2-1.6,6.3c-1.4-0.4-2.9-0.9-4.3-1.3
		c1.1,1.6,2.3,3.3,3.4,4.9c-0.5,1.9-1,3.9-1.4,5.8c1.3-0.8,2.6-1.5,3.9-2.2c1.3,1.5,2.6,3.1,3.9,4.7c-0.5-2.2-1-4.5-1.4-6.7
		C93-1.9,94.2-2.9,95.3-3.8z"/>
	<path class="st1" d="M48.4,13.3c-1.4,0.4-2.9,0.8-4.3,1.3c-0.5-2.1-1-4.2-1.6-6.2c-0.5,2.5-1.1,4.9-1.6,7.4
		c-1.4,0.6-2.9,1.3-4.3,2.1c1.1,0.7,2.3,1.5,3.4,2.3c-0.5,2.3-1,4.6-1.4,6.9c1.3-1.8,2.6-3.5,3.9-5.1c1.3,0.6,2.6,1.3,3.9,2.1
		c-0.5-1.9-1-3.9-1.4-5.8C46.1,16.5,47.3,14.9,48.4,13.3z"/>
	<path class="st1" d="M95.5,19.7c-1.4-0.5-2.9-1-4.3-1.4c-0.5-2.4-1.1-4.9-1.6-7.3c-0.5,2.1-1,4.2-1.6,6.3c-1.4-0.4-2.9-0.9-4.3-1.3
		c1.1,1.6,2.3,3.3,3.4,4.9c-0.5,1.9-1,3.9-1.4,5.8c1.3-0.7,2.6-1.5,3.9-2.2c1.3,1.5,2.6,3.1,3.9,4.7c-0.5-2.2-1-4.5-1.4-6.7
		C93.2,21.6,94.4,20.7,95.5,19.7z"/>
	<path class="st1" d="M141.8,48.5c-13.8,0-27.6-4.8-41.1-9.4l-1.5-0.5c-0.7-0.2-1.1-1.1-1.1-2V13.1c0-0.6,0.2-1.2,0.6-1.6
		c0.4-0.4,0.8-0.5,1.3-0.4l1.5,0.5c13.3,4.6,27,9.3,40.4,9.3c10,0,18.9-2.6,27.3-7.9c0.5-0.3,1-0.2,1.4,0.1c0.4,0.4,0.7,1,0.7,1.7
		v23.5c0,0.8-0.3,1.5-0.9,1.9C161.5,45.8,152.2,48.5,141.8,48.5z M101.1,35l0.4,0.1c13.3,4.5,27,9.2,40.4,9.2
		c9.6,0,18.3-2.4,26.4-7.3V18c-8.2,4.7-16.8,7-26.4,7c-13.6,0-27.4-4.7-40.7-9.3L101.1,35L101.1,35z"/>
	<path class="st1" d="M141.8,116.8c-13.8,0-27.6-4.8-41.1-9.4c-13.3-4.5-27-9.2-40.4-9.2c-10,0-18.9,2.6-27.3,7.9
		c-0.5,0.3-1,0.2-1.4-0.1c-0.4-0.4-0.7-1-0.7-1.7V58.6c0-0.8,0.3-1.5,0.9-1.9c8.8-5.5,18.1-8.2,28.5-8.2c13.8,0,27.6,4.8,41.1,9.4
		c13.3,4.6,27,9.3,40.4,9.3c10,0,18.9-2.6,27.3-7.9c0.5-0.3,1-0.2,1.4,0.1c0.4,0.4,0.7,1,0.7,1.7v45.5c0,0.8-0.3,1.5-0.9,1.9
		C161.5,114.1,152.2,116.8,141.8,116.8z M60.3,94c13.8,0,27.6,4.8,41.1,9.4c13.3,4.5,27,9.3,40.4,9.3c9.6,0,18.3-2.4,26.4-7.3V64.3
		c-8.2,4.7-16.8,7-26.4,7c-13.8,0-27.7-4.8-41.1-9.4c-13.3-4.5-27-9.3-40.4-9.3c-9.6,0-18.3,2.4-26.4,7.3V101
		C42.1,96.3,50.8,94,60.3,94z"/>
	<path class="st1" d="M99.6,38.6c-0.1,0-0.2,0-0.4-0.1c-12-4.1-25.5-8.7-38.9-8.7c-10,0-18.9,2.6-27.3,7.9c-0.5,0.3-1,0.2-1.4-0.1
		c-0.4-0.4-0.7-1-0.7-1.7v-50.4c0-0.8,0.3-1.5,0.9-1.9c8.8-5.5,18.1-8.2,28.5-8.2c12.7,0,24.9,3.8,39.6,8.9c0.7,0.2,1.1,1.1,1.1,2
		v50.4c0,0.6-0.2,1.2-0.6,1.6C100.2,38.5,99.9,38.6,99.6,38.6z M60.3,25.7c12.2,0,23.9,3.5,37.7,8.2v-46.1
		c-14-4.8-25.7-8.3-37.7-8.3c-9.6,0-18.3,2.4-26.4,7.3v45.9C42.1,28,50.8,25.7,60.3,25.7z"/>
	<path class="st1" d="M141.8,116.8c-13.8,0-27.6-4.8-41.1-9.4c-13.3-4.5-27-9.2-40.4-9.2c-10,0-18.9,2.6-27.3,7.9
		c-0.5,0.3-1,0.2-1.4-0.1c-0.4-0.4-0.7-1-0.7-1.7V-14.6c0-0.8,0.3-1.5,0.9-1.9c8.8-5.5,18.1-8.2,28.5-8.2c13.8,0,27.6,4.8,41.1,9.4
		c13.3,4.6,27,9.3,40.4,9.3c10,0,18.9-2.6,27.3-7.9c0.5-0.3,1-0.2,1.4,0.1c0.4,0.4,0.7,1,0.7,1.7v118.7c0,0.8-0.3,1.5-0.9,1.9
		C161.5,114.1,152.2,116.8,141.8,116.8z M60.3,94c13.8,0,27.6,4.8,41.1,9.4c13.3,4.5,27,9.3,40.4,9.3c9.6,0,18.3-2.4,26.4-7.3V-8.9
		c-8.2,4.7-16.8,7-26.4,7c-13.8,0-27.7-4.8-41.1-9.4c-13.3-4.5-27-9.3-40.4-9.3c-9.6,0-18.3,2.4-26.4,7.3V101
		C42.1,96.3,50.8,94,60.3,94z"/>
	<path class="st1" d="M72.5-10.5c-1.4-0.3-2.9-0.5-4.3-0.6c-0.5-2.3-1.1-4.6-1.6-7c-0.5,2.2-1,4.4-1.6,6.6c-1.4-0.1-2.9-0.2-4.3-0.2
		c1.1,1.3,2.3,2.7,3.4,4c-0.5,2.1-1,4.1-1.4,6.2c1.3-1.1,2.6-2.1,3.9-3.1C68-3.3,69.3-2,70.6-0.7c-0.5-2.2-1-4.3-1.4-6.4
		C70.3-8.3,71.4-9.4,72.5-10.5z"/>
	<path class="st1" d="M72.7,13c-1.4-0.3-2.9-0.5-4.3-0.6c-0.5-2.3-1-4.6-1.6-7c-0.5,2.2-1.1,4.4-1.6,6.6c-1.4-0.1-2.9-0.2-4.3-0.2
		c1.1,1.3,2.3,2.7,3.4,4.1c-0.5,2-1,4.1-1.5,6.2c1.3-1.1,2.6-2.1,3.9-3.1c1.3,1.3,2.6,2.6,3.9,3.9c-0.5-2.2-1-4.3-1.4-6.5
		C70.5,15.2,71.6,14.1,72.7,13z"/>
	<g class="st2">
		<path class="st3" d="M141.8,25c-13.8,0-27.7-4.8-41.1-9.4l-1.5-0.5c-0.7-0.2-1.1-1.1-1.1-2v-26.9c0-0.6,0.2-1.2,0.6-1.6
			c0.4-0.4,0.8-0.5,1.3-0.4l1.5,0.5c13.3,4.6,27,9.3,40.4,9.3c10,0,18.9-2.6,27.3-7.9c0.5-0.3,1-0.2,1.4,0.1c0.4,0.4,0.7,1,0.7,1.7
			v26.9c0,0.8-0.3,1.5-0.9,1.9C161.5,22.3,152.2,25,141.8,25z M101.1,11.5l0.4,0.1c13.3,4.6,27,9.3,40.4,9.3
			c9.6,0,18.3-2.4,26.4-7.3V-8.9c-8.2,4.7-16.8,7-26.4,7c-13.6,0-27.4-4.7-40.7-9.3L101.1,11.5L101.1,11.5z"/>
	</g>
	<path class="st1" d="M141.8,116.8c-13.8,0-27.6-4.8-41.1-9.4c-13.3-4.5-27-9.2-40.4-9.2c-10,0-18.9,2.6-27.3,7.9
		c-0.5,0.3-1,0.2-1.4-0.1c-0.4-0.4-0.7-1-0.7-1.7V82c0-0.8,0.3-1.5,0.9-1.9c8.8-5.5,18.1-8.2,28.5-8.2c13.8,0,27.6,4.8,41.1,9.4
		c13.3,4.5,27,9.3,40.4,9.3c10,0,18.9-2.6,27.3-7.9c0.5-0.3,1-0.2,1.4,0.1c0.4,0.4,0.7,1,0.7,1.7v22.1c0,0.8-0.3,1.5-0.9,1.9
		C161.5,114.1,152.2,116.8,141.8,116.8z M60.3,94c13.8,0,27.6,4.8,41.1,9.4c13.3,4.5,27,9.3,40.4,9.3c9.6,0,18.3-2.4,26.4-7.3V87.7
		c-8.2,4.7-16.8,7-26.4,7c-13.8,0-27.7-4.8-41.1-9.4c-13.3-4.5-27-9.2-40.4-9.2c-9.6,0-18.3,2.4-26.4,7.3V101
		C42.1,96.3,50.8,94,60.3,94z"/>
</g>
<g class="st0">
	<g class="st2">
		<path class="st3" d="M126.2,167.1h-52c-0.8,0-1.5-0.9-1.5-2.1V27.9c0-36.8,16-74.2,27.5-74.2s27.5,37.4,27.5,74.2v137.1
			C127.7,166.2,127,167.1,126.2,167.1z M75.6,163h49V27.9c0-35.5-15.5-70.1-24.5-70.1S75.6-7.6,75.6,27.9L75.6,163L75.6,163z"/>
	</g>
	<g class="st2">
		<path class="st3" d="M126.2,239.3h-15.6c-0.8,0-1.5-0.9-1.5-2.1v-14.4c0-1.1,0.7-2.1,1.5-2.1H121c0.6,0,1.1,0.4,1.3,1.1l5.2,14.4
			c0.2,0.6,0.2,1.4-0.1,2C127.2,238.9,126.7,239.3,126.2,239.3z M112.1,235.2h11.7l-3.7-10.3h-8V235.2z"/>
	</g>
	<g class="st2">
		<path class="st3" d="M126.2,210.4c-0.4,0-0.7-0.2-1-0.5c-0.3-0.4-0.5-1-0.5-1.6v-14.4c0-1,0.5-1.9,1.3-2l67.6-14.4
			c0.4-0.1,0.9,0.1,1.2,0.5c0.3,0.4,0.5,1,0.5,1.6v14.4c0,1-0.5,1.9-1.3,2l-67.6,14.4C126.3,210.4,126.2,210.4,126.2,210.4z
			 M127.7,195.7V206l64.6-13.8v-10.3L127.7,195.7z"/>
	</g>
	<g class="st2">
		<path class="st3" d="M74.2,196c-0.1,0-0.2,0-0.2,0L6.3,181.5c-0.7-0.2-1.3-1-1.3-2v-28.9c0-0.6,0.2-1.1,0.5-1.5l51.7-64.6
			l15.5-57.3c0.3-0.9,0.9-1.5,1.7-1.3c0.7,0.2,1.2,1,1.2,2V163h3.7c0.6,0,1.1,0.5,1.4,1.3c0.2,0.8,0.1,1.7-0.3,2.3
			c0,0.1-4.8,6.9-4.8,20.2v7.2c0,0.6-0.2,1.2-0.5,1.6C74.9,195.8,74.5,196,74.2,196z M8.1,177.7l64.6,13.8v-4.8
			c0-9.4,2.1-15.9,3.7-19.6h-2.2c-0.8,0-1.5-0.9-1.5-2.1V39.3L60,86.4c-0.1,0.3-0.2,0.6-0.4,0.8L8.1,151.5V177.7z"/>
	</g>
	<g class="st2">
		<path class="st3" d="M110.6,246.5H89.8c-0.5,0-0.9-0.3-1.2-0.9c-0.3-0.5-0.4-1.2-0.2-1.9l5.2-21.7c0.1-0.3,0.2-0.6,0.4-0.8
			l5.2-7.2c0.6-0.8,1.6-0.8,2.1,0l5.2,7.2c0.2,0.2,0.3,0.5,0.4,0.8l5.2,21.7c0.2,0.6,0.1,1.3-0.2,1.9
			C111.5,246.2,111,246.5,110.6,246.5z M91.8,242.4h16.7l-4.4-18.5l-3.9-5.4l-3.9,5.4L91.8,242.4z"/>
	</g>
	<g class="st2">
		<path class="st3" d="M89.8,239.3H74.2c-0.5,0-1-0.4-1.3-1c-0.3-0.6-0.3-1.4-0.1-2l5.2-14.4c0.3-0.7,0.8-1.1,1.3-1.1h10.4
			c0.8,0,1.5,0.9,1.5,2.1v14.4C91.2,238.4,90.6,239.3,89.8,239.3z M76.6,235.2h11.7v-10.3h-8L76.6,235.2z"/>
	</g>
	<g class="st2">
		<path class="st3" d="M110.6,0.1H89.8c-3.3,0-5.9-3.7-5.9-8.2c0-4.6,2.7-8.3,5.9-8.3h20.8c3.3,0,5.9,3.7,5.9,8.3
			C116.5-3.6,113.8,0.1,110.6,0.1z M89.8-14.4c-2.5,0-4.5,2.8-4.5,6.2c0,3.4,2,6.2,4.5,6.2h20.8c2.5,0,4.5-2.8,4.5-6.2
			c0-3.4-2-6.2-4.5-6.2H89.8z"/>
	</g>
	<g class="st2">
		<path class="st3" d="M74.2,210.4c-0.1,0-0.2,0-0.2,0L6.3,196c-0.7-0.2-1.3-1-1.3-2v-14.4c0-0.6,0.2-1.2,0.5-1.6
			c0.3-0.4,0.8-0.6,1.2-0.5l67.6,14.4c0.7,0.2,1.3,1,1.3,2v14.4c0,0.6-0.2,1.2-0.5,1.6C74.9,210.3,74.5,210.4,74.2,210.4z
			 M8.1,192.1L72.7,206v-10.3L8.1,181.9L8.1,192.1L8.1,192.1z"/>
	</g>
	<g class="st2">
		<path class="st3" d="M95,224.9H74.2c-0.8,0-1.5-0.9-1.5-2.1v-36.1c0-15.1,5.4-22.8,5.6-23.1c0.3-0.4,0.7-0.6,1.1-0.6h20.8
			c0.8,0,1.5,0.9,1.5,2.1c0,1.1-0.7,2.1-1.5,2.1c-2,0-3.7,2.3-3.7,5.2v36.1c0,2.8,1.7,5.1,3.7,5.1c0.6,0,1.1,0.5,1.4,1.3
			c0.2,0.8,0.1,1.7-0.3,2.3l-5.2,7.2C95.7,224.6,95.4,224.9,95,224.9z M75.6,220.7h18.7l2.9-4c-2.2-1.5-3.8-4.7-3.8-8.3v-36.1
			c0-1.9,0.4-3.7,1.1-5.2H80c-1.1,1.9-4.4,8.5-4.4,19.6L75.6,220.7L75.6,220.7z"/>
	</g>
	<g class="st2">
		<path class="st3" d="M126.2,224.9h-20.8c-0.4,0-0.8-0.2-1.1-0.6l-5.2-7.2c-0.4-0.6-0.6-1.5-0.3-2.3c0.2-0.8,0.8-1.3,1.4-1.3
			c2,0,3.7-2.3,3.7-5.1v-36.1c0-2.8-1.7-5.2-3.7-5.2c-0.8,0-1.5-0.9-1.5-2.1c0-1.1,0.7-2.1,1.5-2.1H121c0.4,0,0.8,0.2,1.1,0.6
			c0.2,0.3,5.6,8,5.6,23.1v36.1C127.7,223.9,127,224.9,126.2,224.9z M106,220.7h18.7v-34c0-11.1-3.3-17.6-4.4-19.6h-14.6
			c0.7,1.5,1.1,3.2,1.1,5.2v36.1c0,3.7-1.5,6.8-3.8,8.3L106,220.7z"/>
	</g>
	<g class="st2">
		<path class="st3" d="M126.2,196c-0.4,0-0.7-0.2-1-0.5c-0.3-0.4-0.5-1-0.5-1.6v-7.2c0-13.4-4.7-20.1-4.8-20.2
			c-0.4-0.6-0.6-1.5-0.3-2.3c0.2-0.8,0.8-1.3,1.4-1.3h3.7V27.9c0-1,0.5-1.9,1.2-2c0.7-0.2,1.4,0.4,1.7,1.3L143,84.5l51.7,64.6
			c0.3,0.4,0.5,0.9,0.5,1.5v28.9c0,1-0.5,1.9-1.3,2L126.4,196C126.3,196,126.2,196,126.2,196z M123.9,167.1
			c1.6,3.7,3.7,10.2,3.7,19.6v4.8l64.6-13.8v-26.2l-51.5-64.3c-0.2-0.2-0.3-0.5-0.4-0.8l-12.7-47.1v125.7c0,1.1-0.7,2.1-1.5,2.1
			L123.9,167.1L123.9,167.1z"/>
	</g>
</g>
<g class="st0">
	<g class="st2">
		<ellipse class="st3" cx="100.2" cy="100.1" rx="87.7" ry="121.7"/>
		<path class="st3" d="M100.2,223.9C51,223.9,11,168.4,11,100.1c0-68.3,40-123.8,89.2-123.8c49.2,0,89.2,55.5,89.2,123.8
			S149.3,223.9,100.2,223.9z M100.2-19.6C52.6-19.6,14,34.1,14,100.1c0,66,38.7,119.7,86.2,119.7c47.5,0,86.2-53.7,86.2-119.7
			C186.4,34.1,147.7-19.6,100.2-19.6z"/>
	</g>
	<path class="st1" d="M100.2,194.1C99,194.1-12,193.9-12,176.7c0-3.5,3.3-6,11.2-8.4c12.5-3.8,35.8-6.7,64-8.1
		c11.9-0.6,24.3-0.9,37-0.9c1.1,0,112.2,0.2,112.2,17.3C212.4,193.9,101.3,194.1,100.2,194.1z M100.2,163.5
		c-12.7,0-25.1,0.3-36.9,0.9c-28,1.4-51.2,4.3-63.5,8c-8,2.4-8.8,4.4-8.8,4.5c1.9,5.2,41.8,13,109.2,13s107.4-7.9,109.2-13.4
		C207.6,171.4,167.6,163.5,100.2,163.5z"/>
	<g class="st2">
		<path class="st3" d="M23,188.2c0,5-2.9,9.1-6.6,9.1c-3.6,0-6.6-4.1-6.6-9.1c0-5,2.9-9.1,6.6-9.1C20.1,179.1,23,183.2,23,188.2z"/>
		<path class="st3" d="M16.5,198.4c-4,0-7.3-4.6-7.3-10.1c0-5.6,3.3-10.1,7.3-10.1c4,0,7.3,4.5,7.3,10.1
			C23.8,193.8,20.5,198.4,16.5,198.4z M16.5,180.1c-3.2,0-5.8,3.6-5.8,8.1c0,4.5,2.6,8.1,5.8,8.1c3.2,0,5.8-3.6,5.8-8.1
			C22.3,183.8,19.7,180.1,16.5,180.1z"/>
	</g>
	<g class="st2">
		<ellipse class="st3" cx="130.1" cy="192.3" rx="9.5" ry="13.2"/>
		<path class="st3" d="M130.1,206.5c-5.6,0-10.2-6.4-10.2-14.2c0-7.8,4.6-14.2,10.2-14.2c5.6,0,10.2,6.4,10.2,14.2
			C140.3,200.1,135.7,206.5,130.1,206.5z M130.1,180.1c-4.8,0-8.8,5.4-8.8,12.1c0,6.7,3.9,12.1,8.8,12.1c4.8,0,8.8-5.4,8.8-12.1
			C138.8,185.6,134.9,180.1,130.1,180.1z"/>
	</g>
	<g class="st2">
		<path class="st3" d="M190.4,188.5c0,5.2-3,9.4-6.8,9.4c-3.7,0-6.7-4.2-6.7-9.4c0-5.2,3-9.4,6.7-9.4
			C187.4,179.1,190.4,183.3,190.4,188.5z"/>
		<path class="st3" d="M183.6,199.9c-4.5,0-8.2-5.1-8.2-11.4s3.7-11.4,8.2-11.4s8.2,5.1,8.2,11.4S188.2,199.9,183.6,199.9z
			 M183.6,181.2c-2.9,0-5.3,3.3-5.3,7.3c0,4,2.4,7.3,5.3,7.3c2.9,0,5.3-3.3,5.3-7.3C188.9,184.5,186.5,181.2,183.6,181.2z"/>
	</g>
	<g class="st2">
		<path class="st3" d="M168,177.3c12.4-21,19.9-47.9,19.9-77.2c0-67.2-39.3-121.7-87.7-121.7c-48.4,0-87.7,54.5-87.7,121.7
			c0,29.3,7.5,56.2,19.9,77.2"/>
		<path class="st3" d="M168,179.3c-0.3,0-0.7-0.2-0.9-0.5c-0.6-0.7-0.7-2-0.2-2.9c12.6-21.3,19.5-48.3,19.5-75.9
			c0-66-38.7-119.7-86.2-119.7C52.6-19.6,14,34.1,14,100.1c0,27.6,6.9,54.5,19.5,75.9c0.5,0.9,0.4,2.2-0.2,2.9
			c-0.6,0.7-1.6,0.6-2.1-0.3c-13-22.1-20.2-49.9-20.2-78.5c0-68.3,40-123.8,89.2-123.8c49.2,0,89.2,55.5,89.2,123.8
			c0,28.5-7.2,56.4-20.2,78.5C168.8,179.1,168.4,179.3,168,179.3z"/>
	</g>
	<g class="st2">
		<ellipse class="st3" cx="65.2" cy="191.3" rx="14.5" ry="20.1"/>
		<path class="st3" d="M65.2,212.5c-8.4,0-15.2-9.5-15.2-21.2c0-11.7,6.8-21.2,15.2-21.2s15.2,9.5,15.2,21.2
			C80.4,203,73.6,212.5,65.2,212.5z M65.2,172.2c-7.6,0-13.7,8.6-13.7,19.1c0,10.5,6.2,19.1,13.7,19.1c7.6,0,13.8-8.6,13.8-19.1
			C78.9,180.8,72.8,172.2,65.2,172.2z"/>
	</g>
</g>
<g class="st0">
	<g class="st2">
		<line class="st4" x1="-12.2" y1="179" x2="214.3" y2="179"/>
		<path class="st5" d="M-12.8,179c6.9,0,29.6-22.7,34.2-22.7c4.6,0,13.7-5.7,16-11.3s17.6-11.3,19.9-17c2.3-5.7,15.7,5.7,18,5.7
			c2.3,0,16.2,11.3,18.5,11.3c2.3,0,17.2-11.3,19.5-11.3c2.3,0,11.7,5.7,16.3,5.7c4.6,0,15.4,0,17.7,5.7c2.3,5.7,20.4-11.3,25,11.3
			c4.6,22.7,24.5,11.3,26.8,17c2.3,5.7,15.3,5.7,15.3,5.7"/>
		<path class="st5" d="M-13.4,179c13.8,0,25.2-45.3,34.4-45.3c9.2,0,10.3-11.3,14.9-22.7c4.6-11.3,12.2-22.7,16.9-34
			c4.6-11.3,14.8,11.3,19.4,11.3c4.6,0,15,22.7,19.6,22.7c4.6,0,15.5-22.7,20.1-22.7c4.6,0,9.3,11.3,18.5,11.3
			c9.2,0,14.6,0,19.2,11.3c4.6,11.3,13.7-22.7,22.9,22.7c9.2,45.3,19.1,22.7,23.8,34c4.6,11.3,18,11.3,18,11.3"/>
		<path class="st5" d="M-14,179c20.8,0,20.8-68,34.6-68c13.8,0,6.9-17,13.8-34c6.9-17,6.9-34,13.8-51C55.2,9,62.1,43,69,43
			c6.9,0,13.8,34,20.8,34c6.9,0,13.8-34,20.8-34c6.9,0,6.9,17,20.8,17c13.8,0,13.8,0,20.8,17c6.9,17,6.9-34,20.8,34
			c13.8,68,13.8,34,20.8,51c6.9,17,20.8,17,20.8,17"/>
	</g>
	<rect x="55.8" y="-89.4" class="st6" width="150.2" height="71.1"/>
	
		<text transform="matrix(0.7204 0 0 1 55.8384 -54.186)" class="st1" style="font-family:'MyriadPro-Regular'; font-size:49.5629px;">faire qqch</text>
</g>
<g class="st0">
	<g class="st2">
		<path class="st3" d="M100.2,238.1c-53.4,0-96.9-61.9-96.9-138c0-76.1,43.5-138,96.9-138c0.3,0,0.7,0,1,0l0.6,0
			c13.8,2.8,25.3,39.4,29.6,93.6c38,6.1,63.7,22.4,65.7,41.8l0,1c0,0.5,0,1,0,1.6C197,176.2,153.6,238.1,100.2,238.1z M100.2-33.8
			c-51.8,0-93.9,60-93.9,133.9c0,73.8,42.1,133.9,93.9,133.9c51.8,0,93.9-60.1,93.9-133.9c0-0.5,0-0.9,0-1.4l0-0.8
			c-1.7-17.2-27.6-32.6-64.2-38.2c-0.7-0.1-1.2-0.9-1.3-1.8c-3.9-52.3-14.8-89.1-27-91.6l-0.5,0C100.8-33.8,100.5-33.8,100.2-33.8z"
			/>
	</g>
	<g class="st2">
		<path class="st3" d="M70.4,144.5c-0.8,0-1.4-0.8-1.5-1.9c-1-13.8-1.6-28.1-1.6-42.6c0-3.3,0-6.7,0.1-10l0-1.9
			c0.1-3.3,0.1-6.6,0.3-9.9c0.1-3.7,0.3-7.1,0.5-10.4C71.8,4.5,84.6-37.9,100.2-37.9c14.6,0,26.8,37.5,31.2,95.4
			c0.1,1.1-0.5,2.2-1.3,2.3c-0.8,0.1-1.6-0.7-1.6-1.8c-4.1-54-15.7-91.7-28.2-91.7C86.7-33.8,74.6,9,71.3,68
			c-0.2,3.5-0.4,6.9-0.5,10.3c-0.1,3.5-0.2,6.8-0.3,10.1l0,1.9c-0.1,3.3-0.1,6.6-0.1,9.9c0,14.3,0.5,28.5,1.6,42.2
			c0.1,1.1-0.5,2.2-1.3,2.3C70.5,144.5,70.5,144.5,70.4,144.5z"/>
	</g>
	<path class="st7" d="M129.9,57.9"/>
	<g class="st2">
		<path class="st3" d="M100.2,146.9c-10.2,0-20.3-0.8-29.9-2.2c-0.6-0.1-1-0.6-1.2-1.4c-0.2-0.7-0.1-1.6,0.3-2.1l16-22.8
			c0.6-0.8,1.5-0.8,2.1,0c0.6,0.8,0.6,2.1,0,2.9L73.7,141c10.8,1.5,22.3,2,33.5,1.6l1.3-0.1c2.3-0.1,4.6-0.2,6.8-0.4
			c0,0,0.3,0,0.3,0c2.3-0.2,4.6-0.4,7-0.7c41.5-4.7,71.5-22.1,71.5-41.3c0-17.9-26.5-34.5-64.3-40.3c-0.8-0.1-1.4-1.1-1.3-2.3
			c0.1-1.1,0.8-1.9,1.6-1.8c40.1,6.1,67,24,67,44.4c0,21.7-30.5,40.4-74.1,45.4c-2.5,0.3-4.9,0.5-7.3,0.7c0,0-0.3,0-0.3,0
			c-2.2,0.2-4.5,0.3-6.8,0.4l-1.3,0.1C104.9,146.9,102.5,146.9,100.2,146.9z"/>
	</g>
	<g class="st2">
		<g>
			<path class="st3" d="M98.6,121.7c-4.4,0-8.7-0.3-12.9-1c-0.3-0.1-0.6-0.4-0.7-0.9c-0.5-6-0.7-12.2-0.7-18.4c0-1.4,0-2.9,0.1-4.3
				c0-0.3,0-0.5,0-0.8c0-1.4,0.1-2.8,0.1-4.3c0-1.6,0.1-3.1,0.2-4.5C86,63.8,90.7,40,98.2,40c24.1,0.1,43.7,28.6,43.7,63.4
				c0,0.3,0,0.4,0,0.5h0c0,0.3,0,0.6,0,0.9c-0.6,5.1-15.7,14.4-33.5,16.4c-0.1,0-0.1,0-0.2,0c-1,0.1-2,0.2-3.1,0.3
				c-0.9,0.1-1.7,0.1-2.6,0.2l-1.1,0C100.6,121.7,99.6,121.7,98.6,121.7z M86.4,118.8c4.9,0.7,10.2,0.9,15.2,0.8l1,0
				c0.8,0,1.7-0.1,2.5-0.2c1.1-0.1,2.1-0.2,3.1-0.3c0,0,0.1,0,0.1,0c18.8-2.1,31.8-11.8,32.2-14.6l0-0.4c0-0.2,0-0.5,0-0.7
				c0-33.7-18.9-61.2-42.2-61.3c-5.5,0-10.5,19.1-12,45.5c-0.1,1.5-0.2,3-0.2,4.4c-0.1,1.5-0.1,3-0.1,4.4c0,0.3,0,0.5,0,0.8
				c0,1.5-0.1,2.9-0.1,4.3C85.8,107.3,86,113.1,86.4,118.8z"/>
		</g>
	</g>
</g>
<g class="st0">
	<g class="st2">
		<path class="st3" d="M124-9.5C124-9.5,123.9-9.5,124-9.5l-47.5-8.6c-0.4-0.1-0.6-0.5-0.6-1v-14.3c0-0.3,0.1-0.6,0.3-0.8
			c0.2-0.2,0.4-0.3,0.6-0.2l47.4,8.6c0.4,0.1,0.6,0.5,0.6,1v14.3c0,0.3-0.1,0.6-0.3,0.8C124.3-9.6,124.2-9.5,124-9.5z M77.3-20
			l45.9,8.3v-12.2l-45.9-8.3V-20z"/>
	</g>
	<g class="st2">
		<path class="st3" d="M124,21.9C124,21.9,123.9,21.9,124,21.9l-47.5-8c-0.4-0.1-0.7-0.5-0.7-1V-1.5c0-0.3,0.1-0.6,0.2-0.8
			c0.2-0.2,0.4-0.3,0.6-0.3l47.4,8c0.4,0.1,0.7,0.5,0.7,1v14.3c0,0.3-0.1,0.6-0.2,0.8C124.3,21.8,124.2,21.9,124,21.9z M77.3,11.9
			l45.9,7.8V7.5L77.3-0.3V11.9z"/>
	</g>
	<g class="st2">
		<path class="st3" d="M120.4,53.8C120.4,53.8,120.4,53.8,120.4,53.8L78.2,46c-0.3-0.1-0.5-0.4-0.6-0.8c-0.9-4.7-1.4-9.7-1.6-14.8
			c0-0.3,0.1-0.6,0.2-0.8c0.2-0.2,0.4-0.3,0.6-0.3l46.5,8.6c0.2,0,0.4,0.2,0.5,0.4c0.1,0.2,0.2,0.5,0.1,0.8c-0.6,4.8-1.5,9.5-2.8,14
			C121,53.6,120.7,53.8,120.4,53.8z M78.9,44.1l41,7.6c1-3.8,1.8-7.7,2.4-11.8l-44.8-8.3C77.7,35.9,78.2,40.1,78.9,44.1z"/>
	</g>
	<g class="st2">
		<path class="st3" d="M106.7,82.9C106.6,82.9,106.6,82.9,106.7,82.9l-14.5-2.5c-0.2,0-0.3-0.2-0.5-0.3c-3.5-5.5-6.3-10.7-8.5-15.9
			c-0.1-0.3-0.1-0.8,0-1.1c0.2-0.3,0.4-0.5,0.7-0.5l30.3,5.3c0.3,0,0.5,0.3,0.6,0.6c0.1,0.3,0.1,0.7-0.1,1
			c-2.1,4.3-4.6,8.5-7.6,13.1C107.1,82.7,106.9,82.9,106.7,82.9z M92.7,78.3l13.7,2.4c2.5-3.8,4.7-7.4,6.5-11l-27.6-4.8
			C87.3,69.3,89.7,73.7,92.7,78.3z"/>
	</g>
	<g class="st2">
		<path class="st3" d="M118.8,148.7c0,0-0.1,0-0.1,0l-34.2-7c-0.1,0-0.2-0.1-0.2-0.1c-0.3,0-0.4-0.2-0.5-0.6s0-0.7,0.2-1
			c2.1-4,4.6-8.2,7.7-12.8c0.2-0.2,0.4-0.4,0.7-0.3l18.4,4c0.2,0,0.3,0.2,0.4,0.3c3.6,5.6,6.3,10.8,8.3,15.9c0.1,0.3,0.1,0.8,0,1.1
			C119.2,148.5,119,148.7,118.8,148.7z M85.8,139.9l31.6,6.4c-1.8-4.3-4.2-8.7-7.2-13.4l-17.7-3.8C89.8,132.9,87.6,136.5,85.8,139.9
			z"/>
	</g>
	<g class="st2">
		<path class="st3" d="M123.8,181.4C123.7,181.4,123.7,181.4,123.8,181.4l-47.4-8.8c-0.4-0.1-0.7-0.5-0.6-1.1
			c0.2-4.9,0.8-9.7,1.8-14.2c0.1-0.5,0.4-0.8,0.8-0.7l45.1,8.4c0.3,0.1,0.6,0.4,0.6,0.9c0.3,2.9,0.5,5.7,0.5,8.6v5.9
			c0,0.3-0.1,0.6-0.3,0.8C124.1,181.4,123.9,181.4,123.8,181.4z M77.2,170.7l45.8,8.5v-4.7c0-2.5-0.1-5-0.4-7.5l-43.9-8.2
			C77.9,162.6,77.4,166.6,77.2,170.7z"/>
	</g>
	<g class="st2">
		<path class="st3" d="M123.6,214.1c0,0-0.1,0-0.1,0l-47.2-10.1c-0.4-0.1-0.6-0.5-0.6-1v-14.3c0-0.3,0.1-0.6,0.3-0.8
			c0.2-0.2,0.4-0.3,0.6-0.2l47.4,10.2c0.4,0.1,0.6,0.5,0.6,1l-0.2,14.3c0,0.3-0.1,0.6-0.3,0.8C123.9,214,123.8,214.1,123.6,214.1z
			 M77.1,202l45.8,9.8l0.2-12.2l-45.9-9.9V202z"/>
	</g>
	<g class="st2">
		<path class="st3" d="M125.4,245.5C125.4,245.5,125.3,245.5,125.4,245.5l-49.2-9.1c-0.4-0.1-0.6-0.5-0.6-1v-14.3
			c0-0.3,0.1-0.6,0.3-0.8c0.2-0.2,0.4-0.3,0.6-0.2l47.4,8.9c0.4,0.1,0.6,0.5,0.6,1v8.4c0,2,0.5,3.9,1.5,5.5c0.2,0.3,0.2,0.8,0.1,1.2
			C125.9,245.3,125.7,245.5,125.4,245.5z M77.1,234.4l46.8,8.7c-0.6-1.5-0.9-3.2-0.9-4.9v-7.5l-45.9-8.6V234.4z"/>
	</g>
	<g class="st2">
		<path class="st3" d="M69.5,249.8c-4.6,0-8.3-5.2-8.3-11.5v-63.8c0-35.7,16-56.4,31.5-76.5c15.3-19.9,29.8-38.7,29.8-72.3v-63.8
			c0-6.4,3.7-11.5,8.3-11.5c4.6,0,8.3,5.2,8.3,11.5v63.8c0,43.6-18.6,67.7-35,89.1c-14.1,18.3-26.3,34-26.3,59.7v63.8
			C77.8,244.6,74.1,249.8,69.5,249.8z M130.8-45.5c-2.9,0-5.3,3.3-5.3,7.4v63.8c0,35.4-14.9,54.7-30.6,75.2
			c-15.1,19.6-30.6,39.7-30.6,73.6v63.8c0,4.1,2.4,7.4,5.3,7.4c2.9,0,5.3-3.3,5.3-7.4v-63.8c0-27.5,12.6-43.8,27.2-62.7
			c16-20.8,34.1-44.3,34.1-86.1v-63.8C136.1-42.1,133.7-45.5,130.8-45.5z"/>
	</g>
	<g class="st2">
		<g>
			<path class="st3" d="M90.3,106.1c-0.4,0-0.7-0.2-1-0.6c-14.5-19.6-28-42.9-28-79.8v-63.8c0-6.3,3.7-11.5,8.3-11.5
				c4.6,0,8.3,5.2,8.3,11.5v63.8c0,30,11.5,48,23.4,63.9c0.3,0.4,0.5,0.9,0.5,1.5c0,0.6-0.2,1.1-0.5,1.5c-2.1,2.8-4.3,5.6-6.4,8.5
				l-3.5,4.5C91,105.9,90.6,106.1,90.3,106.1z M69.5-45.5c-2.9,0-5.3,3.3-5.3,7.4v63.8c0,34.5,12.4,56.7,26.1,75.5l2.5-3.2
				c1.8-2.3,3.5-4.6,5.3-6.9C86.1,74.9,74.9,56.3,74.9,25.7v-63.8C74.9-42.1,72.5-45.5,69.5-45.5z"/>
		</g>
		<g>
			<path class="st3" d="M130.8,249.8c-4.6,0-8.3-5.2-8.3-11.5v-63.8c0-23.6-10.1-38.7-23.4-56c-0.3-0.4-0.5-0.9-0.5-1.5
				s0.2-1.1,0.5-1.5c1-1.3,1.9-2.5,2.9-3.8c2.3-3,4.7-6.1,7-9.2c0.6-0.8,1.5-0.8,2.1,0c14.7,19.4,28,39.4,28,72v63.8
				C139.1,244.6,135.4,249.8,130.8,249.8z M102.3,117c13.2,17.4,23.1,32.9,23.1,57.5v63.8c0,4.1,2.4,7.4,5.3,7.4
				c2.9,0,5.3-3.3,5.3-7.4v-63.8c0-30.2-12.2-49.3-26-67.6c-2,2.7-4,5.3-6,7.9C103.5,115.5,102.9,116.3,102.3,117z"/>
		</g>
	</g>
</g>
<g class="st0">
	<g class="st2">
		<g>
			<path class="st3" d="M157.7,137.9H42.3c-10.3,0-13-11.8-13-18.1V55.7c0-14.3,8.5-18.1,13-18.1h4.5c0.5-3.5,2.4-8,7.1-8h11.5
				c4.7,0,6.6,4.5,7.1,8h4.4c2.3,0,5-3.8,7.6-7.4c3-4.2,6.2-8.6,9.7-8.6h23.1c3.5,0,6.6,4.4,9.7,8.6c2.6,3.6,5.3,7.4,7.6,7.4h23.1
				c6.6,0,13,9,13,18.1v64.1C170.8,134.1,162.3,137.9,157.7,137.9z M42.3,41.8c-0.4,0-10.1,0.2-10.1,14v64.1c0,0.6,0.2,14,10.1,14
				h115.4c0.4,0,10.1-0.2,10.1-14V55.7c0-6.9-5.1-14-10.1-14h-23.1c-3.5,0-6.7-4.4-9.7-8.6c-2.6-3.6-5.3-7.4-7.6-7.4H94.3
				c-2.3,0-5,3.8-7.6,7.4c-3.1,4.2-6.2,8.6-9.7,8.6h-5.8c-0.8,0-1.5-0.9-1.5-2.1c0-1-0.3-5.9-4.3-5.9H53.8c-4.1,0-4.3,5.3-4.3,5.9
				c0,1.1-0.7,2.1-1.5,2.1H42.3z"/>
		</g>
		<g>
			<line class="st8" x1="48.1" y1="39.7" x2="71.2" y2="39.7"/>
			<path class="st3" d="M71.2,41.8H48.1c-0.8,0-1.5-0.9-1.5-2.1c0-1.1,0.7-2.1,1.5-2.1h23.1c0.8,0,1.5,0.9,1.5,2.1
				C72.7,40.8,72,41.8,71.2,41.8z"/>
		</g>
		<g>
			<path class="st3" d="M114.5,40.7H97.2c-2,0-3.6-2.3-3.6-5s1.6-5,3.6-5h17.3c2,0,3.6,2.3,3.6,5S116.5,40.7,114.5,40.7z M97.1,32.7
				c-1.2,0-2.2,1.3-2.2,3c0,1.6,1,3,2.2,3h17.3c1.2,0,2.1-1.3,2.1-3c0-1.6-1-3-2.1-3H97.1z"/>
		</g>
		<g>
			<path class="st3" d="M100,128.4c-16.1,0-29.2-18.2-29.2-40.6c0-22.4,13.1-40.6,29.2-40.6c16.1,0,29.3,18.2,29.3,40.6
				C129.3,110.2,116.2,128.4,100,128.4z M100,51.3c-14.5,0-26.3,16.4-26.3,36.4c0,20.1,11.8,36.5,26.3,36.5
				c14.5,0,26.3-16.4,26.3-36.5C126.3,67.7,114.5,51.3,100,51.3z"/>
		</g>
		<g>
			<path class="st3" d="M100,116.9c-11.6,0-20.9-13-20.9-29.1s9.4-29.1,20.9-29.1c11.6,0,21,13,21,29.1S111.6,116.9,100,116.9z
				 M100,60.8c-10.7,0-19.5,12.1-19.5,27c0,14.9,8.7,27,19.5,27c10.7,0,19.5-12.1,19.5-27C119.5,72.9,110.8,60.8,100,60.8z"/>
		</g>
		<g>
			<path class="st3" d="M85.6,92.8c-0.4,0-0.7-0.5-0.7-1c0-13.8,8.1-25.1,18.1-25.1c0.4,0,0.7,0.5,0.7,1s-0.3,1-0.7,1
				c-9.1,0-16.6,10.3-16.6,23C86.4,92.4,86,92.8,85.6,92.8z"/>
		</g>
	</g>
	<g class="st2">
		<path class="st3" d="M10.5,145.8c-4.2,0-12.1-3.5-12.1-16.8V55.3c0-13.3,7.9-16.8,12.1-16.8c9.6,0,12.1,11,12.1,16.8V129
			C22.6,142.3,14.7,145.8,10.5,145.8z M10.5,42.6c-0.9,0-9.1,0.4-9.1,12.7V129c0,12.2,8.2,12.7,9.1,12.7c1,0,9.1-0.5,9.1-12.7V55.3
			C19.6,54,19.3,42.6,10.5,42.6z"/>
	</g>
	<g class="st2">
		<path class="st3" d="M189.8,145.4c-4.2,0-12.1-3.5-12.1-16.8V54.9c0-13.3,7.9-16.8,12.1-16.8c9.6,0,12.1,11,12.1,16.8v73.7
			C201.9,141.9,194,145.4,189.8,145.4z M189.8,42.2c-0.9,0-9.1,0.4-9.1,12.7v73.7c0,12.5,8.7,12.7,9.1,12.7c0.9,0,9.1-0.4,9.1-12.7
			V54.9C198.9,53.6,198.6,42.2,189.8,42.2z"/>
	</g>
	<path class="st1" d="M100.1,13.6c-0.4,0-0.7-0.5-0.7-1v-28.2c0-0.6,0.3-1,0.7-1c0.4,0,0.7,0.5,0.7,1v28.2
		C100.8,13.2,100.5,13.6,100.1,13.6z"/>
	<path class="st1" d="M100-14.6c-2.9,0-5.2-3.3-5.2-7.3c0-4,2.3-7.3,5.2-7.3c2.9,0,5.2,3.3,5.2,7.3C105.3-17.9,102.9-14.6,100-14.6z
		 M100-27.1c-2.1,0-3.7,2.3-3.7,5.2s1.7,5.2,3.7,5.2c2.1,0,3.7-2.3,3.7-5.2C103.8-24.7,102.1-27.1,100-27.1z"/>
	<g class="st2">
		<path class="st3" d="M139,229.3c-9.1,0-16.3-17.1-16.3-39c0-21.9,7.2-39,16.3-39c9.1,0,16.3,17.1,16.3,39
			C155.4,212.2,148.2,229.3,139,229.3z M139,155.5c-7.2,0-13.3,16-13.3,34.9c0,18.9,6.1,34.9,13.3,34.9c7.2,0,13.3-16,13.3-34.9
			C152.4,171.4,146.3,155.5,139,155.5z"/>
	</g>
	<ellipse class="st1" cx="139" cy="190.3" rx="4.4" ry="10.9"/>
	<g class="st2">
		<path class="st3" d="M75.7,229.3c-9.1,0-16.3-17.1-16.3-39c0-21.9,7.2-39,16.3-39c9.1,0,16.3,17.1,16.3,39
			C92,212.2,84.8,229.3,75.7,229.3z M75.7,155.5c-7.2,0-13.3,16-13.3,34.9c0,18.9,6.1,34.9,13.3,34.9c7.2,0,13.3-16,13.3-34.9
			C89,171.4,82.9,155.5,75.7,155.5z"/>
	</g>
	<ellipse class="st1" cx="75.7" cy="190.3" rx="4.4" ry="10.9"/>
	<g class="st2">
		<g>
			<path class="st3" d="M139,229.3h-14.8c-9.1,0-16.3-17.1-16.3-39c0-21.9,7.2-39,16.3-39H139c0.8,0,1.5,0.9,1.5,2.1
				c0,1.1-0.7,2.1-1.5,2.1c-7.2,0-13.3,16-13.3,34.9c0,18.9,6.1,34.9,13.3,34.9c0.8,0,1.5,0.9,1.5,2.1
				C140.5,228.4,139.9,229.3,139,229.3z M124.2,155.5c-7.2,0-13.3,16-13.3,34.9c0,18.9,6.1,34.9,13.3,34.9h7.4
				c-5.3-6.3-8.9-19.4-8.9-34.9c0-15.4,3.6-28.5,8.9-34.9L124.2,155.5L124.2,155.5z"/>
		</g>
		<g>
			<polygon class="st3" points="139,227.2 139.1,227.2 139.1,227.2 			"/>
			<path class="st3" d="M139.1,229.3L139.1,229.3c-0.9,0-1.5-0.9-1.5-2.1c0-1.1,0.7-2.1,1.5-2.1c0.8,0,1.5,0.9,1.5,2.1
				C140.5,228.4,139.9,229.3,139.1,229.3z"/>
		</g>
	</g>
	<g class="st2">
		<g>
			<path class="st3" d="M75.7,229.3H60.9c-9.1,0-16.3-17.1-16.3-39c0-21.9,7.2-39,16.3-39h14.8c0.8,0,1.5,0.9,1.5,2.1
				c0,1.1-0.7,2.1-1.5,2.1c-7.2,0-13.3,16-13.3,34.9c0,18.9,6.1,34.9,13.3,34.9c0.8,0,1.5,0.9,1.5,2.1
				C77.2,228.4,76.5,229.3,75.7,229.3z M60.9,155.5c-7.2,0-13.3,16-13.3,34.9c0,18.9,6.1,34.9,13.3,34.9h7.4
				c-5.3-6.3-8.9-19.4-8.9-34.9c0-15.4,3.6-28.5,8.9-34.9L60.9,155.5L60.9,155.5z"/>
		</g>
		<g>
			<polygon class="st3" points="75.7,227.2 75.7,227.2 75.7,227.2 			"/>
			<path class="st3" d="M75.7,229.3L75.7,229.3c-0.9,0-1.5-0.9-1.5-2.1c0-1.1,0.7-2.1,1.5-2.1c0.8,0,1.5,0.9,1.5,2.1
				C77.2,228.4,76.6,229.3,75.7,229.3z"/>
		</g>
	</g>
</g>
<g class="st0">
	<g class="st2">
		<path class="st3" d="M74.5,74.4c-0.4,0-0.7-0.4-0.7-0.9c0-0.6,0.2-1.1,0.7-1.1c0.1,0,11.8-1.9,25.5-9
			c12.6-6.5,29.5-18.9,38.8-40.9c0.2-0.5,0.7-0.7,1-0.4c0.4,0.3,0.5,0.9,0.3,1.4c-9.5,22.6-26.8,35.2-39.6,41.8
			C86.5,72.5,74.7,74.4,74.5,74.4C74.5,74.4,74.5,74.4,74.5,74.4z"/>
		<path class="st3" d="M87.4,121.2c-0.4,0-0.7-0.3-0.7-0.8c-0.1-0.6,0.2-1.1,0.6-1.2c0.3-0.1,28.2-7.6,38.3-46.1
			c0.1-0.5,0.6-0.8,1-0.6c0.4,0.2,0.6,0.8,0.4,1.3c-10.4,39.7-39.2,47.4-39.5,47.5C87.5,121.2,87.5,121.2,87.4,121.2z"/>
		<path class="st3" d="M100.4,35.9c-41.8,0-43-18-43-20.1c0-2.1,1.2-20.1,43-20.1c41.8,0,43,18,43,20.1
			C143.4,17.9,142.2,35.9,100.4,35.9z M100.4-0.1c-38.9,0-40,15.8-40,16c0,0,1.1,15.9,40,15.9c38.9,0,40-15.8,40-15.9
			C140.4,15.7,139.3-0.1,100.4-0.1z"/>
		<path class="st3" d="M100.4,172.7L100.4,172.7c-0.6,0-1.2-0.5-1.4-1.3L58.5,20c-0.3-1,0.1-2.1,0.7-2.6c0.7-0.5,1.5-0.1,1.9,0.8
			c1.9,4.1,9.4,13.5,39.3,13.5c29.9,0,37.5-9.5,39.3-13.5c0.4-0.9,1.2-1.2,1.9-0.8c0.7,0.5,1,1.6,0.7,2.6l-40.6,151.3
			C101.6,172.1,101,172.7,100.4,172.7z M63.4,26.6l37,138.1l37-138.1c-5.5,4.7-16.3,9.3-37,9.3C79.6,35.9,68.9,31.3,63.4,26.6z"/>
	</g>
	<g class="st2">
		<path class="st3" d="M100.7-11.9c-0.4,0-0.7-0.5-0.7-1v-28.2c0-0.6,0.3-1,0.7-1c0.4,0,0.7,0.5,0.7,1v28.2
			C101.5-12.4,101.1-11.9,100.7-11.9z"/>
		<path class="st3" d="M100.7-40.1c-2.9,0-5.2-3.3-5.2-7.3c0-4,2.3-7.3,5.2-7.3c2.9,0,5.2,3.3,5.2,7.3
			C105.9-43.4,103.6-40.1,100.7-40.1z M100.7-52.6c-2.1,0-3.7,2.3-3.7,5.2s1.7,5.2,3.7,5.2s3.7-2.3,3.7-5.2
			C104.4-50.3,102.8-52.6,100.7-52.6z"/>
	</g>
	<g class="st2">
		<path class="st3" d="M42.3,150.5c-4.2,0-12.1-3.5-12.1-16.8V60c0-13.3,7.9-16.8,12.1-16.8c9.6,0,12.1,11,12.1,16.8v73.7
			C54.4,147,46.5,150.5,42.3,150.5z M42.3,47.3c-0.9,0-9.1,0.4-9.1,12.7v73.7c0,12.5,8.7,12.7,9.1,12.7c0.9,0,9.1-0.4,9.1-12.7V60
			C51.4,58.7,51.1,47.3,42.3,47.3z"/>
	</g>
	<g class="st2">
		<path class="st3" d="M158,150.5c-4.2,0-12.1-3.5-12.1-16.8V60c0-13.3,7.9-16.8,12.1-16.8c9.6,0,12.1,11,12.1,16.8v73.7
			C170.1,147,162.2,150.5,158,150.5z M158,47.3c-0.9,0-9.1,0.4-9.1,12.7v73.7c0,12.2,8.2,12.7,9.1,12.7c1,0,9.1-0.5,9.1-12.7V60
			C167.1,58.7,166.8,47.3,158,47.3z"/>
	</g>
	<g class="st2">
		<path class="st3" d="M139.3,254.8c-9.1,0-16.3-17.1-16.3-39c0-21.9,7.2-39,16.3-39c9.1,0,16.3,17.1,16.3,39
			C155.6,237.7,148.4,254.8,139.3,254.8z M139.3,181c-7.2,0-13.3,16-13.3,34.9c0,18.9,6.1,34.9,13.3,34.9s13.3-16,13.3-34.9
			C152.6,197,146.5,181,139.3,181z"/>
	</g>
	<path class="st1" d="M143.7,215.9c0,6-2,10.9-4.4,10.9s-4.4-4.9-4.4-10.9c0-6.1,2-11,4.4-11C141.7,204.9,143.7,209.8,143.7,215.9z"
		/>
	<g class="st2">
		<path class="st3" d="M76,254.8c-9.1,0-16.3-17.1-16.3-39c0-21.9,7.2-39,16.3-39s16.3,17.1,16.3,39C92.3,237.7,85.1,254.8,76,254.8
			z M76,181c-7.2,0-13.3,16-13.3,34.9c0,18.9,6.1,34.9,13.3,34.9s13.3-16,13.3-34.9C89.3,197,83.2,181,76,181z"/>
	</g>
	<path class="st1" d="M80.4,215.9c0,6-2,10.9-4.4,10.9c-2.4,0-4.4-4.9-4.4-10.9c0-6.1,2-11,4.4-11C78.4,204.9,80.4,209.8,80.4,215.9
		z"/>
	<g class="st2">
		<g>
			<path class="st3" d="M139.3,254.8h-14.8c-9.1,0-16.3-17.1-16.3-39c0-21.9,7.2-39,16.3-39h14.8c0.8,0,1.5,0.9,1.5,2.1
				c0,1.1-0.7,2.1-1.5,2.1c-7.2,0-13.3,16-13.3,34.9c0,18.9,6.1,34.9,13.3,34.9c0.8,0,1.5,0.9,1.5,2.1
				C140.8,253.9,140.1,254.8,139.3,254.8z M124.5,181c-7.2,0-13.3,16-13.3,34.9c0,18.9,6.1,34.9,13.3,34.9h7.4
				c-5.3-6.4-8.9-19.4-8.9-34.9c0-15.4,3.6-28.5,8.9-34.9L124.5,181L124.5,181z"/>
		</g>
		<g>
			<polygon class="st3" points="139.3,252.8 139.3,252.8 139.3,252.8 			"/>
			<path class="st3" d="M139.3,254.8L139.3,254.8c-0.9,0-1.5-0.9-1.5-2.1c0-1,0.5-1.9,1.3-2c0.9-0.2,1.8,0.8,1.8,2
				C140.8,253.9,140.1,254.8,139.3,254.8z"/>
		</g>
	</g>
	<g class="st2">
		<g>
			<path class="st3" d="M76,254.8H61.1c-9.1,0-16.3-17.1-16.3-39c0-21.9,7.2-39,16.3-39H76c0.8,0,1.5,0.9,1.5,2.1
				c0,1.1-0.7,2.1-1.5,2.1c-7.2,0-13.3,16-13.3,34.9c0,18.9,6.1,34.9,13.3,34.9c0.8,0,1.5,0.9,1.5,2.1
				C77.4,253.9,76.8,254.8,76,254.8z M61.1,181c-7.2,0-13.3,16-13.3,34.9c0,18.9,6.1,34.9,13.3,34.9h7.4c-5.3-6.4-8.9-19.4-8.9-34.9
				c0-15.4,3.6-28.5,8.9-34.9L61.1,181L61.1,181z"/>
		</g>
		<g>
			<polygon class="st3" points="76,252.8 76,252.8 76,252.8 			"/>
			<path class="st3" d="M76,254.8L76,254.8c-0.9,0-1.5-0.9-1.5-2.1c0-1,0.5-1.9,1.2-2c0.9-0.3,1.8,0.8,1.8,2
				C77.5,253.9,76.8,254.8,76,254.8z"/>
		</g>
	</g>
</g>
<g class="st0">
	<path class="st1" d="M99.7,176c-1.6,0-4.8-1-4.8-4.9c0-1.4-0.6-2.2-1.3-3.3c-1.2-1.7-2.6-3.8-2.6-8.7v-92c0-0.5,0.4-0.9,0.8-0.9
		h15.7c0.5,0,0.8,0.4,0.8,0.9v92c0,5-1.4,7-2.6,8.7c-0.8,1.1-1.3,1.9-1.3,3.3C104.4,175,101.3,176,99.7,176z M92.6,68v91.1
		c0,4.4,1.2,6.2,2.3,7.7c0.8,1.2,1.6,2.3,1.6,4.3c0,3,2.8,3.1,3.1,3.2c0.3,0,3.1-0.1,3.1-3.2c0-1.9,0.8-3.1,1.6-4.3
		c1.1-1.6,2.3-3.3,2.3-7.7V68H92.6z"/>
	<g class="st2">
		<path class="st3" d="M107.6,70.5h-14c-2,0-5-1.8-5-6.9V28.7c-2.2-3.8-3.5-8.6-3.5-13.5c0-11.8,6.9-21.4,15.4-21.4
			c8.5,0,15.4,9.6,15.4,21.4c0,4.9-1.2,9.7-3.5,13.5v34.9C112.6,68.6,109.6,70.5,107.6,70.5z M100.7-2.2c-6.9,0-12.5,7.8-12.5,17.3
			c0,4.2,1.1,8.3,3.1,11.4c0.2,0.4,0.4,0.9,0.4,1.4v35.7c0,2.6,1.5,2.8,2,2.8h13.9c0.6,0,2-0.3,2-2.8V27.9c0-0.5,0.1-1,0.4-1.4
			c2-3.2,3.1-7.2,3.1-11.4C113.1,5.6,107.5-2.2,100.7-2.2z"/>
	</g>
	<g class="st2">
		<path class="st3" d="M100.3-17.8c-0.4,0-0.7-0.5-0.7-1v-28.2c0-0.6,0.3-1,0.7-1c0.4,0,0.7,0.5,0.7,1v28.2
			C101-18.3,100.7-17.8,100.3-17.8z"/>
		<path class="st3" d="M100.3-46c-2.9,0-5.2-3.3-5.2-7.3c0-4,2.3-7.3,5.2-7.3c2.9,0,5.2,3.3,5.2,7.3C105.5-49.3,103.2-46,100.3-46z
			 M100.3-58.5c-2.1,0-3.7,2.3-3.7,5.2c0,2.9,1.7,5.2,3.7,5.2s3.7-2.3,3.7-5.2C104-56.2,102.4-58.5,100.3-58.5z"/>
	</g>
	<g class="st2">
		<path class="st3" d="M62,164c-4.2,0-12.1-3.5-12.1-16.8V73.4c0-13.3,7.9-16.8,12.1-16.8c9.6,0,12.1,11,12.1,16.8v73.7
			C74.1,160.4,66.1,164,62,164z M62,60.8c-0.9,0-9.1,0.4-9.1,12.7v73.7c0,12.5,8.7,12.7,9.1,12.7c0.9,0,9.1-0.4,9.1-12.7V73.4
			C71.1,72.2,70.8,60.8,62,60.8z"/>
	</g>
	<g class="st2">
		<path class="st3" d="M139.1,164c-4.2,0-12.1-3.5-12.1-16.8V73.4c0-13.3,7.9-16.8,12.1-16.8c9.6,0,12.1,11,12.1,16.8v73.7
			C151.2,160.4,143.3,164,139.1,164z M139.1,60.8c-0.9,0-9.1,0.4-9.1,12.7v73.7c0,12.5,8.7,12.7,9.1,12.7c0.9,0,9.1-0.4,9.1-12.7
			V73.4C148.2,72.2,147.9,60.8,139.1,60.8z"/>
	</g>
	<g class="st2">
		<path class="st3" d="M139.2,260.7c-9.1,0-16.3-17.1-16.3-39c0-21.9,7.2-39,16.3-39c9.1,0,16.3,17.1,16.3,39
			C155.6,243.6,148.4,260.7,139.2,260.7z M139.2,186.9c-7.2,0-13.3,16-13.3,34.9c0,18.9,6.1,34.9,13.3,34.9c7.2,0,13.3-16,13.3-34.9
			C152.6,202.9,146.5,186.9,139.2,186.9z"/>
	</g>
	<ellipse class="st1" cx="139.3" cy="221.8" rx="4.4" ry="10.9"/>
	<g class="st2">
		<path class="st3" d="M75.9,260.7c-9.1,0-16.3-17.1-16.3-39c0-21.9,7.2-39,16.3-39c9.1,0,16.3,17.1,16.3,39
			C92.2,243.6,85.1,260.7,75.9,260.7z M75.9,186.9c-7.2,0-13.3,16-13.3,34.9c0,18.9,6.1,34.9,13.3,34.9c7.2,0,13.3-16,13.3-34.9
			C89.2,202.9,83.1,186.9,75.9,186.9z"/>
	</g>
	<ellipse class="st1" cx="75.9" cy="221.8" rx="4.4" ry="10.9"/>
	<g class="st2">
		<g>
			<path class="st3" d="M139.2,260.7h-14.8c-9.1,0-16.3-17.1-16.3-39c0-21.9,7.2-39,16.3-39h14.8c0.8,0,1.5,0.9,1.5,2.1
				c0,1.1-0.7,2.1-1.5,2.1c-7.2,0-13.3,16-13.3,34.9c0,18.9,6.1,34.9,13.3,34.9c0.8,0,1.5,0.9,1.5,2.1
				C140.7,259.8,140.1,260.7,139.2,260.7z M124.4,186.9c-7.2,0-13.3,16-13.3,34.9c0,18.9,6.1,34.9,13.3,34.9h7.4
				c-5.3-6.4-8.9-19.4-8.9-34.9c0-15.4,3.6-28.5,8.9-34.9L124.4,186.9L124.4,186.9z"/>
		</g>
		<g>
			<polygon class="st3" points="139.2,258.7 139.3,258.7 139.3,258.7 			"/>
			<path class="st3" d="M139.3,260.7L139.3,260.7c-0.9,0-1.5-0.9-1.5-2.1c0-1.1,0.7-2.1,1.5-2.1c0.8,0,1.5,0.9,1.5,2.1
				C140.8,259.8,140.1,260.7,139.3,260.7z"/>
		</g>
	</g>
	<g class="st2">
		<g>
			<path class="st3" d="M75.9,260.7H61.1c-9.1,0-16.3-17.1-16.3-39c0-21.9,7.2-39,16.3-39h14.8c0.8,0,1.5,0.9,1.5,2.1
				c0,1.1-0.7,2.1-1.5,2.1c-7.2,0-13.3,16-13.3,34.9c0,18.9,6.1,34.9,13.3,34.9c0.8,0,1.5,0.9,1.5,2.1
				C77.4,259.8,76.7,260.7,75.9,260.7z M61.1,186.9c-7.2,0-13.3,16-13.3,34.9c0,18.9,6.1,34.9,13.3,34.9h7.4
				c-5.3-6.4-8.9-19.4-8.9-34.9c0-15.4,3.6-28.5,8.9-34.9L61.1,186.9L61.1,186.9z"/>
		</g>
		<g>
			<polygon class="st3" points="75.9,258.7 75.9,258.7 75.9,258.7 			"/>
			<path class="st3" d="M75.9,260.7L75.9,260.7c-0.9,0-1.5-0.9-1.5-2.1c0-1.1,0.7-2.1,1.5-2.1c0.8,0,1.5,0.9,1.5,2.1
				C77.4,259.8,76.8,260.7,75.9,260.7z"/>
		</g>
	</g>
</g>
<g class="st0">
	<g class="st2">
		<g>
			<path class="st3" d="M122.7,145.5H75.9c-0.4,0-0.7-0.5-0.7-1c0-0.6,0.3-1,0.7-1h46.8c0.4,0,0.7,0.5,0.7,1
				C123.5,145.1,123.1,145.5,122.7,145.5z"/>
			<g>
				<path class="st3" d="M99.3,135.6c-0.4,0-0.7-0.5-0.7-1v-31.3c0-0.6,0.3-1,0.7-1s0.7,0.5,0.7,1v31.3
					C100,135.1,99.7,135.6,99.3,135.6z"/>
				<path class="st3" d="M106.8,114.7c-0.2,0-0.4-0.1-0.5-0.3l-7-9.7l-7,9.7c-0.3,0.4-0.8,0.4-1.1,0c-0.3-0.4-0.3-1.1,0-1.5
					l7.5-10.4c0.1-0.2,0.3-0.3,0.5-0.3l0,0c0.2,0,0.4,0.1,0.5,0.3l7.5,10.4c0.3,0.4,0.3,1.1,0,1.5
					C107.2,114.6,107,114.7,106.8,114.7z"/>
			</g>
		</g>
		<g>
			<path class="st3" d="M119.4,92.6c-0.4,0-0.8-0.2-1.1-0.7c-0.1-0.1-6.2-9.6-18.2-9.6c-12,0-18.2,9.5-18.2,9.6
				c-0.5,0.9-1.5,0.9-2.1,0.2c-0.6-0.7-0.7-2-0.1-2.9c0.3-0.5,7-11,20.5-11c13.4,0,20.2,10.6,20.5,11c0.5,0.9,0.5,2.2-0.1,2.9
				C120.1,92.5,119.8,92.6,119.4,92.6z"/>
			<path class="st3" d="M127.5,79.2c-0.4,0-0.8-0.2-1.1-0.7c-0.1-0.1-9-13.4-26.3-13.4c-17.3,0-26.2,13.2-26.3,13.4
				c-0.5,0.9-1.5,0.9-2.1,0.2c-0.6-0.8-0.7-2.1-0.1-2.9C72,75.2,81.4,61,100.1,61c18.7,0,28.1,14.1,28.5,14.7
				c0.5,0.9,0.5,2.2-0.1,2.9C128.2,79,127.8,79.2,127.5,79.2z"/>
			<path class="st3" d="M135.5,65.8c-0.4,0-0.8-0.2-1.1-0.7c-0.1-0.2-11.7-17.1-34.3-17.1c-22.6,0-34.2,16.9-34.3,17.1
				c-0.6,0.8-1.5,0.9-2.1,0.1c-0.6-0.8-0.7-2.1-0.1-2.9c0.5-0.8,12.5-18.4,36.5-18.4c24,0,36,17.7,36.5,18.4
				c0.6,0.8,0.5,2.1-0.1,2.9C136.2,65.6,135.9,65.8,135.5,65.8z"/>
			<path class="st3" d="M143.6,52.4c-0.4,0-0.8-0.2-1.1-0.7c-0.1-0.2-14.5-20.8-42.4-20.8S57.8,51.5,57.7,51.7
				c-0.6,0.8-1.5,0.9-2.1,0.1c-0.6-0.8-0.6-2.1-0.1-2.9c0.6-0.9,15.3-22.2,44.6-22.2c29.3,0,44,21.3,44.6,22.2
				c0.6,0.8,0.5,2.1-0.1,2.9C144.3,52.2,143.9,52.4,143.6,52.4z"/>
			<path class="st3" d="M151.6,38.9c-0.4,0-0.8-0.2-1.1-0.6c-0.2-0.2-17.2-24.6-50.5-24.6c-33.2,0-50.3,24.3-50.5,24.6
				c-0.6,0.8-1.5,0.9-2.1,0.1c-0.6-0.8-0.6-2.1-0.1-2.9c0.7-1.1,18-25.9,52.6-25.9c34.6,0,51.9,24.8,52.6,25.9
				c0.6,0.8,0.5,2.1-0.1,2.9C152.4,38.8,152,38.9,151.6,38.9z"/>
		</g>
	</g>
	<g class="st2">
		<path class="st3" d="M32.3,152.3c-4.2,0-12.1-3.5-12.1-16.8V61.8c0-13.3,7.9-16.8,12.1-16.8c9.6,0,12.1,11,12.1,16.8v73.7
			C44.4,148.8,36.5,152.3,32.3,152.3z M32.3,49.1c-0.9,0-9.1,0.4-9.1,12.7v73.7c0,12.5,8.7,12.7,9.1,12.7c0.9,0,9.1-0.4,9.1-12.7
			V61.8C41.4,60.5,41.1,49.1,32.3,49.1z"/>
	</g>
	<g class="st2">
		<path class="st3" d="M168,151.8c-4.2,0-12.1-3.5-12.1-16.8V61.3c0-13.3,7.9-16.8,12.1-16.8c9.6,0,12.1,11,12.1,16.8V135
			C180.1,148.3,172.2,151.8,168,151.8z M168,48.6c-0.9,0-9.1,0.4-9.1,12.7V135c0,12.5,8.7,12.7,9.1,12.7c0.9,0,9.1-0.4,9.1-12.7
			V61.3C177.1,60,176.8,48.6,168,48.6z"/>
	</g>
	<path class="st1" d="M100,1.2c-0.4,0-0.7-0.5-0.7-1v-28.2c0-0.6,0.3-1,0.7-1c0.4,0,0.7,0.5,0.7,1V0.1C100.7,0.7,100.4,1.2,100,1.2z
		"/>
	<path class="st1" d="M100-27.1c-2.9,0-5.2-3.3-5.2-7.3c0-4,2.3-7.3,5.2-7.3c2.9,0,5.2,3.3,5.2,7.3C105.2-30.3,102.9-27.1,100-27.1z
		 M100-39.5c-2.1,0-3.7,2.3-3.7,5.2c0,2.9,1.7,5.2,3.7,5.2c2.1,0,3.7-2.3,3.7-5.2C103.7-37.2,102-39.5,100-39.5z"/>
	<g class="st2">
		<path class="st3" d="M137.8,241.8c-9.1,0-16.3-17.1-16.3-39c0-21.9,7.2-39,16.3-39s16.3,17.1,16.3,39
			C154.2,224.7,147,241.8,137.8,241.8z M137.8,168c-7.2,0-13.3,16-13.3,34.8c0,18.9,6.1,34.9,13.3,34.9c7.2,0,13.3-16,13.3-34.9
			C151.2,183.9,145.1,168,137.8,168z"/>
	</g>
	<ellipse class="st1" cx="137.8" cy="202.8" rx="4.4" ry="10.9"/>
	<g class="st2">
		<path class="st3" d="M74.5,241.8c-9.1,0-16.3-17.1-16.3-39c0-21.9,7.2-39,16.3-39c9.1,0,16.3,17.1,16.3,39
			C90.8,224.7,83.7,241.8,74.5,241.8z M74.5,168c-7.2,0-13.3,16-13.3,34.8c0,18.9,6.1,34.9,13.3,34.9c7.2,0,13.3-16,13.3-34.9
			C87.8,183.9,81.7,168,74.5,168z"/>
	</g>
	<ellipse class="st1" cx="74.5" cy="202.8" rx="4.4" ry="10.9"/>
	<g class="st2">
		<g>
			<path class="st3" d="M137.8,241.8H123c-9.1,0-16.3-17.1-16.3-39c0-21.9,7.2-39,16.3-39h14.8c0.8,0,1.5,0.9,1.5,2.1
				c0,1.1-0.7,2.1-1.5,2.1c-7.2,0-13.3,16-13.3,34.8c0,18.9,6.1,34.9,13.3,34.9c0.8,0,1.5,0.9,1.5,2.1
				C139.3,240.9,138.7,241.8,137.8,241.8z M123,168c-7.2,0-13.3,16-13.3,34.8c0,18.9,6.1,34.9,13.3,34.9h7.4
				c-5.3-6.3-8.9-19.4-8.9-34.9c0-15.4,3.6-28.5,8.9-34.8H123z"/>
		</g>
		<g>
			<polygon class="st3" points="137.8,239.7 137.9,239.7 137.9,239.7 			"/>
			<path class="st3" d="M137.9,241.8L137.9,241.8c-0.9,0-1.5-0.9-1.5-2.1c0-1,0.5-1.9,1.3-2c0.9-0.2,1.8,0.8,1.8,2
				C139.4,240.8,138.7,241.8,137.9,241.8z"/>
		</g>
	</g>
	<g class="st2">
		<g>
			<path class="st3" d="M74.5,241.8H59.7c-9.1,0-16.3-17.1-16.3-39c0-21.9,7.2-39,16.3-39h14.8c0.8,0,1.5,0.9,1.5,2.1
				c0,1.1-0.7,2.1-1.5,2.1c-7.2,0-13.3,16-13.3,34.8c0,18.9,6.1,34.9,13.3,34.9c0.8,0,1.5,0.9,1.5,2.1
				C76,240.9,75.3,241.8,74.5,241.8z M59.7,168c-7.2,0-13.3,16-13.3,34.8c0,18.9,6.1,34.9,13.3,34.9h7.4c-5.3-6.3-8.9-19.4-8.9-34.9
				c0-15.4,3.6-28.5,8.9-34.8H59.7z"/>
		</g>
		<g>
			<polygon class="st3" points="74.5,239.7 74.5,239.7 74.5,239.7 			"/>
			<path class="st3" d="M74.5,241.8L74.5,241.8c-0.9,0-1.5-0.9-1.5-2.1c0-1,0.5-1.9,1.2-2c0.9-0.3,1.8,0.8,1.8,2
				C76,240.8,75.4,241.8,74.5,241.8z"/>
		</g>
	</g>
</g>
<g class="st0">
	<path class="st1" d="M122.7,145.5H75.9c-0.4,0-0.7-0.5-0.7-1c0-0.6,0.3-1,0.7-1h46.8c0.4,0,0.7,0.5,0.7,1
		C123.5,145.1,123.1,145.5,122.7,145.5z"/>
	<g class="st2">
		<path class="st3" d="M99.3,102.2c0.4,0,0.7,0.5,0.7,1v31.3c0,0.6-0.3,1-0.7,1s-0.7-0.5-0.7-1v-31.3
			C98.5,102.7,98.9,102.2,99.3,102.2z"/>
		<path class="st3" d="M91.8,123.1c0.2,0,0.4,0.1,0.5,0.3l7,9.7l7-9.7c0.3-0.4,0.8-0.4,1.1,0c0.3,0.4,0.3,1.1,0,1.5l-7.5,10.4
			c-0.1,0.2-0.3,0.3-0.5,0.3l0,0c-0.2,0-0.4-0.1-0.5-0.3l-7.5-10.4c-0.3-0.4-0.3-1.1,0-1.5C91.4,123.2,91.6,123.1,91.8,123.1z"/>
	</g>
	<g class="st2">
		<path class="st3" d="M119.4,92.6c-0.4,0-0.8-0.2-1.1-0.7c-0.1-0.1-6.2-9.6-18.2-9.6c-12,0-18.2,9.5-18.2,9.6
			c-0.5,0.9-1.5,0.9-2.1,0.2c-0.6-0.7-0.7-2-0.1-2.9c0.3-0.5,7-11,20.5-11c13.4,0,20.2,10.6,20.5,11c0.5,0.9,0.5,2.2-0.1,2.9
			C120.1,92.5,119.8,92.6,119.4,92.6z"/>
		<path class="st3" d="M127.5,79.2c-0.4,0-0.8-0.2-1.1-0.7c-0.1-0.1-9-13.4-26.3-13.4c-17.3,0-26.2,13.2-26.3,13.4
			c-0.5,0.9-1.5,0.9-2.1,0.2c-0.6-0.8-0.7-2.1-0.1-2.9C72,75.2,81.4,61,100.1,61c18.7,0,28.1,14.1,28.5,14.7
			c0.5,0.9,0.5,2.2-0.1,2.9C128.2,79,127.8,79.2,127.5,79.2z"/>
		<path class="st3" d="M135.5,65.8c-0.4,0-0.8-0.2-1.1-0.7c-0.1-0.2-11.7-17.1-34.3-17.1c-22.6,0-34.2,16.9-34.3,17.1
			c-0.6,0.8-1.5,0.9-2.1,0.1c-0.6-0.8-0.7-2.1-0.1-2.9c0.5-0.8,12.5-18.4,36.5-18.4c24,0,36,17.7,36.5,18.4c0.6,0.8,0.5,2.1-0.1,2.9
			C136.2,65.6,135.9,65.8,135.5,65.8z"/>
		<path class="st3" d="M143.6,52.4c-0.4,0-0.8-0.2-1.1-0.7c-0.1-0.2-14.5-20.8-42.4-20.8S57.8,51.5,57.7,51.7
			c-0.6,0.8-1.5,0.9-2.1,0.1c-0.6-0.8-0.6-2.1-0.1-2.9c0.6-0.9,15.3-22.2,44.6-22.2c29.3,0,44,21.3,44.6,22.2
			c0.6,0.8,0.5,2.1-0.1,2.9C144.3,52.2,143.9,52.4,143.6,52.4z"/>
		<path class="st3" d="M151.6,38.9c-0.4,0-0.8-0.2-1.1-0.6c-0.2-0.2-17.2-24.6-50.5-24.6c-33.2,0-50.3,24.3-50.5,24.6
			c-0.6,0.8-1.5,0.9-2.1,0.1c-0.6-0.8-0.6-2.1-0.1-2.9c0.7-1.1,18-25.9,52.6-25.9c34.6,0,51.9,24.8,52.6,25.9
			c0.6,0.8,0.5,2.1-0.1,2.9C152.4,38.8,152,38.9,151.6,38.9z"/>
	</g>
	<g class="st2">
		<path class="st3" d="M32.3,152.3c-4.2,0-12.1-3.5-12.1-16.8V61.8c0-13.3,7.9-16.8,12.1-16.8c9.6,0,12.1,11,12.1,16.8v73.7
			C44.4,148.8,36.5,152.3,32.3,152.3z M32.3,49.1c-0.9,0-9.1,0.4-9.1,12.7v73.7c0,12.5,8.7,12.7,9.1,12.7c0.9,0,9.1-0.4,9.1-12.7
			V61.8C41.4,60.5,41.1,49.1,32.3,49.1z"/>
	</g>
	<g class="st2">
		<path class="st3" d="M168,151.8c-4.2,0-12.1-3.5-12.1-16.8V61.3c0-13.3,7.9-16.8,12.1-16.8c9.6,0,12.1,11,12.1,16.8V135
			C180.1,148.3,172.2,151.8,168,151.8z M168,48.6c-0.9,0-9.1,0.4-9.1,12.7V135c0,12.5,8.7,12.7,9.1,12.7c0.9,0,9.1-0.4,9.1-12.7
			V61.3C177.1,60,176.8,48.6,168,48.6z"/>
	</g>
	<path class="st1" d="M100,1.2c-0.4,0-0.7-0.5-0.7-1v-28.2c0-0.6,0.3-1,0.7-1c0.4,0,0.7,0.5,0.7,1V0.1C100.7,0.7,100.4,1.2,100,1.2z
		"/>
	<path class="st1" d="M100-27.1c-2.9,0-5.2-3.3-5.2-7.3c0-4,2.3-7.3,5.2-7.3c2.9,0,5.2,3.3,5.2,7.3C105.2-30.3,102.9-27.1,100-27.1z
		 M100-39.5c-2.1,0-3.7,2.3-3.7,5.2c0,2.9,1.7,5.2,3.7,5.2c2.1,0,3.7-2.3,3.7-5.2C103.7-37.2,102-39.5,100-39.5z"/>
	<g class="st2">
		<path class="st3" d="M137.8,241.8c-9.1,0-16.3-17.1-16.3-39c0-21.9,7.2-39,16.3-39s16.3,17.1,16.3,39
			C154.2,224.7,147,241.8,137.8,241.8z M137.8,168c-7.2,0-13.3,16-13.3,34.8c0,18.9,6.1,34.9,13.3,34.9c7.2,0,13.3-16,13.3-34.9
			C151.2,183.9,145.1,168,137.8,168z"/>
	</g>
	<ellipse class="st1" cx="137.8" cy="202.8" rx="4.4" ry="10.9"/>
	<g class="st2">
		<path class="st3" d="M74.5,241.8c-9.1,0-16.3-17.1-16.3-39c0-21.9,7.2-39,16.3-39c9.1,0,16.3,17.1,16.3,39
			C90.8,224.7,83.7,241.8,74.5,241.8z M74.5,168c-7.2,0-13.3,16-13.3,34.8c0,18.9,6.1,34.9,13.3,34.9c7.2,0,13.3-16,13.3-34.9
			C87.8,183.9,81.7,168,74.5,168z"/>
	</g>
	<ellipse class="st1" cx="74.5" cy="202.8" rx="4.4" ry="10.9"/>
	<g class="st2">
		<g>
			<path class="st3" d="M137.8,241.8H123c-9.1,0-16.3-17.1-16.3-39c0-21.9,7.2-39,16.3-39h14.8c0.8,0,1.5,0.9,1.5,2.1
				c0,1.1-0.7,2.1-1.5,2.1c-7.2,0-13.3,16-13.3,34.8c0,18.9,6.1,34.9,13.3,34.9c0.8,0,1.5,0.9,1.5,2.1
				C139.3,240.9,138.7,241.8,137.8,241.8z M123,168c-7.2,0-13.3,16-13.3,34.8c0,18.9,6.1,34.9,13.3,34.9h7.4
				c-5.3-6.3-8.9-19.4-8.9-34.9c0-15.4,3.6-28.5,8.9-34.8H123z"/>
		</g>
		<g>
			<polygon class="st3" points="137.8,239.7 137.9,239.7 137.9,239.7 			"/>
			<path class="st3" d="M137.9,241.8L137.9,241.8c-0.9,0-1.5-0.9-1.5-2.1c0-1,0.5-1.9,1.3-2c0.9-0.2,1.8,0.8,1.8,2
				C139.4,240.8,138.7,241.8,137.9,241.8z"/>
		</g>
	</g>
	<g class="st2">
		<g>
			<path class="st3" d="M74.5,241.8H59.7c-9.1,0-16.3-17.1-16.3-39c0-21.9,7.2-39,16.3-39h14.8c0.8,0,1.5,0.9,1.5,2.1
				c0,1.1-0.7,2.1-1.5,2.1c-7.2,0-13.3,16-13.3,34.8c0,18.9,6.1,34.9,13.3,34.9c0.8,0,1.5,0.9,1.5,2.1
				C76,240.9,75.3,241.8,74.5,241.8z M59.7,168c-7.2,0-13.3,16-13.3,34.8c0,18.9,6.1,34.9,13.3,34.9h7.4c-5.3-6.3-8.9-19.4-8.9-34.9
				c0-15.4,3.6-28.5,8.9-34.8H59.7z"/>
		</g>
		<g>
			<polygon class="st3" points="74.5,239.7 74.5,239.7 74.5,239.7 			"/>
			<path class="st3" d="M74.5,241.8L74.5,241.8c-0.9,0-1.5-0.9-1.5-2.1c0-1,0.5-1.9,1.2-2c0.9-0.3,1.8,0.8,1.8,2
				C76,240.8,75.4,241.8,74.5,241.8z"/>
		</g>
	</g>
</g>
<g class="st0">
	<g class="st2">
		<path class="st3" d="M100.2,172c-15.1,0-26.9-7.6-26.9-17.2V8.5c0-1.1,0.7-2.1,1.5-2.1c0.8,0,1.5,0.9,1.5,2.1
			c0,6.2,9.8,13.1,23.9,13.1c14.1,0,24-6.9,24-13.1c0-1.1,0.7-2.1,1.5-2.1c0.8,0,1.5,0.9,1.5,2.1v146.3
			C127.1,164.4,115.3,172,100.2,172z M76.2,16.5v138.3c0,6.2,9.8,13.1,23.9,13.1c14.1,0,24-6.9,24-13.1V16.5
			c-4.4,5.5-13.4,9.2-24,9.2C89.6,25.7,80.7,22,76.2,16.5z"/>
	</g>
	<g class="st2">
		<path class="st3" d="M100.5,71.7c-12.8,0-26-4.8-26-12.7c0-8,13.2-12.7,26-12.7c12.8,0,26,4.8,26,12.7
			C126.6,66.9,113.3,71.7,100.5,71.7z M100.5,48.3C86.1,48.3,76,53.9,76,58.9c0,5.2,9.9,10.7,24.5,10.7c14.7,0,24.5-5.5,24.5-10.7
			C125.1,53.9,115,48.3,100.5,48.3z"/>
	</g>
	<g class="st2">
		<path class="st3" d="M54.6,159.9c-4.2,0-12.1-3.5-12.1-16.8V69.4c0-13.3,7.9-16.8,12.1-16.8c9.6,0,12.1,11,12.1,16.8v73.7
			C66.7,156.4,58.8,159.9,54.6,159.9z M54.6,56.7c-0.9,0-9.1,0.4-9.1,12.7v73.7c0,12.5,8.7,12.7,9.1,12.7c0.9,0,9.1-0.4,9.1-12.7
			V69.4C63.7,68.1,63.4,56.7,54.6,56.7z"/>
	</g>
	<g class="st2">
		<path class="st3" d="M145.7,159.9c-4.2,0-12.1-3.5-12.1-16.8V69.4c0-13.3,7.9-16.8,12.1-16.8c9.6,0,12.1,11,12.1,16.8v73.7
			C157.8,156.4,149.9,159.9,145.7,159.9z M145.7,56.7c-0.9,0-9.1,0.4-9.1,12.7v73.7c0,12.5,8.7,12.7,9.1,12.7
			c0.9,0,9.1-0.4,9.1-12.7V69.4C154.8,68.1,154.5,56.7,145.7,56.7z"/>
	</g>
	<path class="st1" d="M100.3-20.5c-0.4,0-0.7-0.5-0.7-1v-28.2c0-0.6,0.3-1,0.7-1c0.4,0,0.7,0.5,0.7,1v28.2
		C101-21,100.7-20.5,100.3-20.5z"/>
	<path class="st1" d="M100.3-48.8c-2.9,0-5.2-3.3-5.2-7.3c0-4,2.3-7.2,5.2-7.2c2.9,0,5.2,3.3,5.2,7.2
		C105.5-52,103.2-48.8,100.3-48.8z M100.3-61.2c-2.1,0-3.7,2.3-3.7,5.2c0,2.9,1.7,5.2,3.7,5.2c2.1,0,3.7-2.3,3.7-5.2
		C104-58.9,102.3-61.2,100.3-61.2z"/>
	<g class="st2">
		<path class="st3" d="M139.2,263.5c-9.1,0-16.3-17.1-16.3-39c0-21.9,7.2-39,16.3-39c9.1,0,16.3,17.1,16.3,39
			C155.5,246.3,148.3,263.5,139.2,263.5z M139.2,189.6c-7.2,0-13.3,16-13.3,34.9c0,18.9,6.1,34.9,13.3,34.9c7.2,0,13.3-16,13.3-34.9
			C152.5,205.6,146.4,189.6,139.2,189.6z"/>
	</g>
	<path class="st1" d="M143.6,224.5c0,6-2,10.9-4.4,10.9c-2.4,0-4.4-4.9-4.4-10.9c0-6.1,2-11,4.4-11
		C141.6,213.5,143.6,218.4,143.6,224.5z"/>
	<g class="st2">
		<path class="st3" d="M75.9,263.5c-9.1,0-16.3-17.1-16.3-39c0-21.9,7.2-39,16.3-39s16.3,17.1,16.3,39
			C92.2,246.3,85,263.5,75.9,263.5z M75.9,189.6c-7.2,0-13.3,16-13.3,34.9c0,18.9,6.1,34.9,13.3,34.9s13.3-16,13.3-34.9
			C89.2,205.6,83.1,189.6,75.9,189.6z"/>
	</g>
	<ellipse class="st1" cx="75.9" cy="224.5" rx="4.4" ry="10.9"/>
	<g class="st2">
		<g>
			<path class="st3" d="M139.2,263.5h-14.8c-9.1,0-16.3-17.1-16.3-39c0-21.9,7.2-39,16.3-39h14.8c0.8,0,1.5,0.9,1.5,2.1
				c0,1.1-0.7,2.1-1.5,2.1c-7.2,0-13.3,16-13.3,34.9c0,18.9,6.1,34.9,13.3,34.9c0.8,0,1.5,0.9,1.5,2.1
				C140.7,262.5,140,263.5,139.2,263.5z M124.4,189.6c-7.2,0-13.3,16-13.3,34.9c0,18.9,6.1,34.9,13.3,34.9h7.4
				c-5.3-6.3-8.9-19.4-8.9-34.9c0-15.4,3.6-28.5,8.9-34.9L124.4,189.6L124.4,189.6z"/>
		</g>
		<g>
			<polygon class="st3" points="139.2,261.4 139.2,261.4 139.2,261.4 			"/>
			<path class="st3" d="M139.2,263.5L139.2,263.5c-0.9,0-1.5-0.9-1.5-2.1c0-1.1,0.6-2,1.4-2.1c0,0,0.1,0,0.1,0
				c0.8,0,1.5,0.9,1.5,2.1C140.7,262.5,140,263.5,139.2,263.5z"/>
		</g>
	</g>
	<g class="st2">
		<g>
			<path class="st3" d="M75.9,263.5H61c-9.1,0-16.3-17.1-16.3-39c0-21.9,7.2-39,16.3-39h14.8c0.8,0,1.5,0.9,1.5,2.1
				c0,1.1-0.7,2.1-1.5,2.1c-7.2,0-13.3,16-13.3,34.9c0,18.9,6.1,34.9,13.3,34.9c0.8,0,1.5,0.9,1.5,2.1
				C77.3,262.5,76.7,263.5,75.9,263.5z M61,189.6c-7.2,0-13.3,16-13.3,34.9c0,18.9,6.1,34.9,13.3,34.9h7.4
				c-5.3-6.3-8.9-19.4-8.9-34.9c0-15.4,3.6-28.5,8.9-34.9L61,189.6L61,189.6z"/>
		</g>
		<g>
			<polygon class="st3" points="75.9,261.4 75.9,261.4 75.9,261.4 			"/>
			<path class="st3" d="M75.9,263.5L75.9,263.5c-0.9,0-1.5-0.9-1.5-2.1c0-1.1,0.7-2.1,1.5-2.1c0.8,0,1.5,0.9,1.5,2.1
				C77.4,262.5,76.7,263.5,75.9,263.5z"/>
		</g>
	</g>
	<g class="st2">
		<path class="st3" d="M100.2,25.7c-15.1,0-26.9-7.6-26.9-17.2c0-7,6.1-13,15.9-15.7c0.8-0.2,1.6,0.5,1.7,1.6
			c0.2,1.1-0.4,2.2-1.2,2.4C81.7-0.9,76.2,3.8,76.2,8.5c0,6.2,9.8,13.1,23.9,13.1c14.1,0,24-6.9,24-13.1c0-4.7-5.4-9.4-13.5-11.7
			c-0.8-0.2-1.3-1.3-1.2-2.4c0.2-1.1,1-1.8,1.8-1.6c9.8,2.7,15.9,8.7,15.9,15.7C127.1,18.2,115.3,25.7,100.2,25.7z"/>
	</g>
	<g class="st2">
		<path class="st3" d="M100.3,15.4c-11.3,0-11.7-6.2-11.7-6.9V-4.1c0-0.6,0.3-1,0.7-1s0.7,0.5,0.7,1c0,0.3,0.2,6.5,10.2,6.5
			c9.9,0,10.2-6.2,10.2-6.5c0-0.6,0.3-1,0.7-1c0.4,0,0.7,0.5,0.7,1l0,0l0,0l0,0l0,0l0,0l0,0l0,0l0,0v0c0,0,0,0,0,0V8.5
			c0,0.1,0,1.6-1.1,3.1C109,14.1,105.5,15.4,100.3,15.4z M90,8.5c0,0,0.4,4.8,10.2,4.8c9.8,0,10.1-4.8,10.1-4.8V0.3
			c-1.5,2.1-4.4,4.2-10.2,4.2c-5.8,0-8.7-2.1-10.2-4.2V8.5L90,8.5z"/>
	</g>
	<g class="st2">
		<path class="st3" d="M100.2,4.5c-6.5,0-11.6-3.8-11.6-8.6c0-4.8,5.1-8.6,11.6-8.6c6.5,0,11.6,3.8,11.6,8.6
			C111.8,0.7,106.7,4.5,100.2,4.5z M100.2-10.6C94.1-10.6,90-7.2,90-4.1c0,3.5,4.7,6.5,10.2,6.5c5.5,0,10.2-3,10.2-6.5
			C110.4-7.2,106.3-10.6,100.2-10.6z"/>
	</g>
</g>
<g class="st0">
	<g class="st2">
		<path class="st3" d="M87.6,50.8c-0.3,0.4-0.6,0.6-1.1,0.6h-4.1L66.8,62.3l15.6,10.8h36.5l15.6-10.8l-15.6-10.8h-4.1
			c-0.3,0-0.7-0.2-0.9-0.4c-0.3-0.4,1.9-3.7,1.9-3.7h3.4c0.2,0,0.5,0.1,0.7,0.2l18.6,12.9c0.5,0.4,0.8,1.1,0.8,1.8
			c0,0.8-0.3,1.5-0.8,1.8L119.9,77c-0.2,0.1-0.4,0.2-0.7,0.2H82.1c-0.2,0-0.5-0.1-0.7-0.2L62.8,64.1c-0.5-0.4-0.8-1.1-0.8-1.8
			c0-0.8,0.3-1.5,0.8-1.8l18.6-12.9c0.2-0.1,0.4-0.2,0.7-0.2h3.5"/>
		<path class="st3" d="M85.6,47.3c0,0,2.3,3.1,2,3.5"/>
	</g>
	<g class="st2">
		<path class="st3" d="M137.9,154.7H63.5c-0.4,0-0.7-0.2-1-0.5l-21-25.8c-0.5-0.6-0.6-1.6-0.4-2.4l21.1-64.5
			c0.2-0.5,0.5-0.9,0.9-1.1c0.4-0.2,0.8-0.2,1.2,0.1l18.3,12.7h36.5l18.3-12.7c0.4-0.3,0.8-0.3,1.2-0.1c0.4,0.2,0.7,0.6,0.9,1.1
			l21.1,64.5c0.3,0.8,0.1,1.8-0.4,2.4l-21.1,25.8C138.6,154.5,138.2,154.7,137.9,154.7z M64,150.6h73.3l19.8-24.3l-20-61.2l-17.2,12
			c-0.2,0.1-0.4,0.2-0.7,0.2H82.1c-0.2,0-0.5-0.1-0.7-0.2l-17.2-12l-20,61.2L64,150.6z"/>
	</g>
	<g class="st2">
		<line class="st8" x1="63.5" y1="152.6" x2="82.1" y2="75.2"/>
		<path class="st3" d="M63.5,154.7c-0.2,0-0.3,0-0.5-0.1c-0.8-0.4-1.2-1.5-0.9-2.6l18.6-77.5c0.3-1.1,1.1-1.7,1.9-1.3
			c0.8,0.4,1.2,1.5,0.9,2.6l-18.6,77.5C64.7,154.2,64.1,154.7,63.5,154.7z"/>
	</g>
	<g class="st2">
		<line class="st8" x1="119.3" y1="75.2" x2="137.9" y2="152.6"/>
		<path class="st3" d="M137.9,154.7c-0.6,0-1.2-0.5-1.4-1.4l-18.6-77.5c-0.3-1.1,0.2-2.3,0.9-2.6c0.8-0.4,1.6,0.2,1.9,1.3l18.6,77.5
			c0.3,1.1-0.2,2.3-0.9,2.6C138.2,154.7,138,154.7,137.9,154.7z"/>
	</g>
	<g class="st2">
		<path class="st3" d="M87.5,130.7h-4.3l6.7-24.8h-9.7v-5.1h14v5.1L87.5,130.7z"/>
		<path class="st3" d="M96.3,118.5v-17.7h13.1v5.1h-9v6.2c0.6-0.5,1.9-1,3-1c4.3,0,6.8,4,6.8,10.1v1.4c0,5.3-2.9,8.5-6.9,8.5
			c-4.7,0-7-3.5-7.3-8.9v0h4v0c0.1,2.3,1.3,3.8,3,3.8c2,0,3-1.6,3-3.9v-1.6c0-2.6-1.1-4.3-3-4.3c-1.4,0-2.3,0.8-2.7,2.3L96.3,118.5
			L96.3,118.5z"/>
		<path class="st3" d="M113.8,124l2.4-3.6h2.3l-2.7,4.1l3.1,6.3h-2.2l-2.1-4.3l-0.7,1.1v3.2h-1.9v-14h1.9V124z"/>
		<path class="st3" d="M121.1,130.8c0.1,0.9,0.6,1.4,1.4,1.4c0.9,0,1.4-0.8,1.4-2V129c-0.3,0.7-1.1,1.2-1.7,1.2c-1.5,0-3-1.4-3-4.5
			v-1.1c0-3,1.5-4.5,3-4.5c0.7,0,1.4,0.5,1.7,1.2v-0.9h1.9v9.5c0,2.9-1.2,4.7-3.3,4.7c-1.9,0-3-1.5-3.3-3.8L121.1,130.8L121.1,130.8
			z M121,125.6c0,1.4,0.7,2,1.4,2c0.7,0,1.4-0.6,1.4-2v-0.9c0-1.4-0.7-2-1.4-2c-0.7,0-1.4,0.6-1.4,2V125.6z"/>
	</g>
	<g class="st2">
		<path class="st3" d="M104.1,62.2h-6.9c-0.4,0-0.7-0.5-0.7-1V49.7c0-0.6,0.3-1,0.7-1h6.9c0.4,0,0.7,0.5,0.7,1v11.6
			C104.9,61.8,104.5,62.2,104.1,62.2z M98,60.2h5.4v-9.5H98V60.2z"/>
	</g>
	<g class="st2">
		<path class="st3" d="M100.7-4.5c-0.4,0-0.7-0.5-0.7-1v-28.2c0-0.6,0.3-1,0.7-1c0.4,0,0.7,0.5,0.7,1v28.2
			C101.4-5,101.1-4.5,100.7-4.5z"/>
		<path class="st3" d="M100.7-32.8c-2.9,0-5.2-3.3-5.2-7.3c0-4,2.3-7.3,5.2-7.3c2.9,0,5.2,3.3,5.2,7.3
			C105.9-36,103.6-32.8,100.7-32.8z M100.7-45.2c-2.1,0-3.7,2.3-3.7,5.2c0,2.9,1.7,5.2,3.7,5.2c2.1,0,3.7-2.3,3.7-5.2
			C104.4-42.9,102.8-45.2,100.7-45.2z"/>
	</g>
	<g class="st2">
		<path class="st3" d="M18.4,156.1c-4.2,0-12.1-3.5-12.1-16.8V65.6c0-13.3,7.9-16.8,12.1-16.8c9.6,0,12.1,11,12.1,16.8v73.7
			C30.5,152.6,22.6,156.1,18.4,156.1z M18.4,52.9c-0.9,0-9.1,0.4-9.1,12.7v73.7c0,12.5,8.7,12.7,9.1,12.7c0.9,0,9.1-0.4,9.1-12.7
			V65.6C27.5,64.3,27.2,52.9,18.4,52.9z"/>
	</g>
	<g class="st2">
		<path class="st3" d="M181.9,155.6c-4.2,0-12.1-3.5-12.1-16.8V65.1c0-13.3,7.9-16.8,12.1-16.8c9.6,0,12.1,11,12.1,16.8v73.7
			C194,152.1,186.1,155.6,181.9,155.6z M181.9,52.4c-0.9,0-9.1,0.4-9.1,12.7v73.7c0,12.5,8.7,12.7,9.1,12.7c0.9,0,9.1-0.4,9.1-12.7
			V65.1C191,63.8,190.7,52.4,181.9,52.4z"/>
	</g>
	<g class="st2">
		<path class="st3" d="M139.2,247.5c-9.1,0-16.3-17.1-16.3-39c0-21.9,7.2-39,16.3-39c9.1,0,16.3,17.1,16.3,39
			C155.5,230.4,148.3,247.5,139.2,247.5z M139.2,173.6c-7.2,0-13.3,16-13.3,34.9c0,18.9,6.1,34.9,13.3,34.9s13.3-16,13.3-34.9
			C152.5,189.6,146.4,173.6,139.2,173.6z"/>
	</g>
	<ellipse class="st1" cx="139.2" cy="208.5" rx="4.4" ry="10.9"/>
	<g class="st2">
		<path class="st3" d="M75.8,247.5c-9.1,0-16.3-17.1-16.3-39c0-21.9,7.2-39,16.3-39c9.1,0,16.3,17.1,16.3,39
			C92.1,230.4,85,247.5,75.8,247.5z M75.8,173.6c-7.2,0-13.3,16-13.3,34.9c0,18.9,6.1,34.9,13.3,34.9c7.2,0,13.3-16,13.3-34.9
			C89.2,189.6,83.1,173.6,75.8,173.6z"/>
	</g>
	<ellipse class="st1" cx="75.8" cy="208.5" rx="4.4" ry="10.9"/>
	<g class="st2">
		<g>
			<path class="st3" d="M139.2,247.5h-14.8c-9.1,0-16.3-17.1-16.3-39c0-21.9,7.2-39,16.3-39h14.8c0.8,0,1.5,0.9,1.5,2.1
				c0,1.1-0.7,2.1-1.5,2.1c-7.2,0-13.3,16-13.3,34.9c0,18.9,6.1,34.9,13.3,34.9c0.8,0,1.5,0.9,1.5,2.1
				C140.7,246.5,140,247.5,139.2,247.5z M124.3,173.6c-7.2,0-13.3,16-13.3,34.9c0,18.9,6.1,34.9,13.3,34.9h7.4
				c-5.3-6.3-8.9-19.4-8.9-34.9c0-15.4,3.6-28.5,8.9-34.9L124.3,173.6L124.3,173.6z"/>
		</g>
		<g>
			<polygon class="st3" points="139.2,245.4 139.2,245.4 139.2,245.4 			"/>
			<path class="st3" d="M139.2,247.5L139.2,247.5c-0.9,0-1.5-0.9-1.5-2.1c0-1,0.5-1.9,1.2-2c0.9-0.3,1.8,0.8,1.8,2
				C140.7,246.5,140,247.5,139.2,247.5z"/>
		</g>
	</g>
	<g class="st2">
		<g>
			<path class="st3" d="M75.8,247.5H61c-9.1,0-16.3-17.1-16.3-39c0-21.9,7.2-39,16.3-39h14.8c0.8,0,1.5,0.9,1.5,2.1
				c0,1.1-0.7,2.1-1.5,2.1c-7.2,0-13.3,16-13.3,34.9c0,18.9,6.1,34.9,13.3,34.9c0.8,0,1.5,0.9,1.5,2.1
				C77.3,246.5,76.7,247.5,75.8,247.5z M61,173.6c-7.2,0-13.3,16-13.3,34.9c0,18.9,6.1,34.9,13.3,34.9h7.4
				c-5.3-6.3-8.9-19.4-8.9-34.9c0-15.4,3.6-28.5,8.9-34.9L61,173.6L61,173.6z"/>
		</g>
		<g>
			<polygon class="st3" points="75.8,245.4 75.9,245.4 75.9,245.4 			"/>
			<path class="st3" d="M75.9,247.5L75.9,247.5c-0.9,0-1.5-0.9-1.5-2.1c0-1,0.6-1.9,1.3-2c1-0.2,1.7,0.8,1.7,2
				C77.4,246.5,76.7,247.5,75.9,247.5z"/>
		</g>
	</g>
	<g class="st2">
		<path class="st3" d="M104.1,59c-0.2,0-0.3-0.1-0.5-0.2c-0.2-0.2-0.3-0.5-0.3-0.8v-7c0-0.5,0.2-0.9,0.6-1c5.7-2.1,9.7-9.2,9.7-17.4
			c0-9.9-5.8-18-13-18c-7.1,0-13,8.1-13,18c0,8.2,4,15.3,9.7,17.4c0.3,0.1,0.6,0.5,0.6,1v7c0,0.3-0.1,0.6-0.3,0.8
			c-0.2,0.2-0.4,0.3-0.6,0.2C88,56.7,81.4,45.6,81.4,32.7c0-14.8,8.7-26.9,19.3-26.9s19.3,12,19.3,26.9c0,12.9-6.6,24-15.8,26.4
			C104.2,59,104.2,59,104.1,59z M104.9,51.8v4.9c8-2.6,13.7-12.6,13.7-24.1c0-13.7-8-24.8-17.9-24.8S82.8,19,82.8,32.7
			c0,11.5,5.7,21.4,13.7,24.1v-4.9c-6.1-2.6-10.3-10.3-10.3-19.1c0-11.1,6.5-20.1,14.4-20.1s14.5,9,14.5,20.1
			C115.1,41.5,110.9,49.3,104.9,51.8z"/>
	</g>
</g>
<g class="st0">
	<g class="st2">
		<path class="st3" d="M112.3,76.2v25.1h2.9v2.7h-2.9v11.1h-2.1v-11.1H97v-2.7l13.2-25.1H112.3z M110.2,101.3V81l-10.7,20.3H110.2z"
			/>
		<path class="st3" d="M121.9,94c1.3-2.1,3.4-3.2,5.4-3.2c3.7,0,8,2.9,8,11.3v2.4c0,8.3-4.2,11.3-8,11.3c-3.7,0-7.9-2.9-7.9-11.3
			v-0.5h2.1v0.4c0,5.2,2.4,8.4,5.8,8.4c3.4,0,5.8-3.2,5.8-8.4v-2.4c0-5.2-2.4-8.4-5.8-8.4c-2.2,0-4.1,1.5-5.1,4h-2.5V76.2h14.4V79
			h-12.3L121.9,94L121.9,94z"/>
		<path class="st3" d="M145.8,75.9c3.4,0,6.3,3.9,6.3,8.7c0,4.8-2.8,8.7-6.3,8.7c-3.4,0-6.3-3.9-6.3-8.7
			C139.5,79.8,142.3,75.9,145.8,75.9z M145.8,90.9c2.5,0,4.5-2.8,4.5-6.2c0-3.5-2-6.2-4.5-6.2c-2.5,0-4.5,2.8-4.5,6.2
			C141.3,88.1,143.3,90.9,145.8,90.9z"/>
	</g>
	<path class="st1" d="M164.8,146.7H32.7c-0.6,0-1.1-0.5-1.4-1.3c-0.2-0.8-0.1-1.7,0.3-2.3l93.4-129.6c0.6-0.8,1.5-0.8,2.1,0
		s0.6,2.1,0,2.9L36.3,142.6h128.5c0.8,0,1.5,0.9,1.5,2.1C166.3,145.8,165.6,146.7,164.8,146.7z"/>
	<path class="st1" d="M57.5,145.7c-0.4,0-0.7-0.5-0.7-1c0-8.9-2.5-17.3-7-23.6c-0.3-0.4-0.3-1.1,0-1.5c0.3-0.4,0.8-0.4,1.1,0
		c4.8,6.7,7.5,15.6,7.5,25C58.3,145.2,57.9,145.7,57.5,145.7z"/>
	<g class="st2">
		<path class="st3" d="M101.5,5.3c-0.4,0-0.7-0.5-0.7-1V-24c0-0.6,0.3-1,0.7-1c0.4,0,0.7,0.5,0.7,1V4.2
			C102.2,4.8,101.9,5.3,101.5,5.3z"/>
		<path class="st3" d="M101.5-23c-2.9,0-5.2-3.3-5.2-7.3c0-4,2.3-7.3,5.2-7.3c2.9,0,5.2,3.3,5.2,7.3C106.7-26.2,104.4-23,101.5-23z
			 M101.5-35.4c-2.1,0-3.7,2.3-3.7,5.2s1.7,5.2,3.7,5.2c2.1,0,3.7-2.3,3.7-5.2C105.2-33.1,103.6-35.4,101.5-35.4z"/>
	</g>
	<g class="st2">
		<path class="st3" d="M13.5,152c-4.2,0-12.1-3.5-12.1-16.8V61.5c0-13.3,7.9-16.8,12.1-16.8c9.6,0,12.1,11,12.1,16.8v73.7
			C25.6,148.5,17.7,152,13.5,152z M13.5,48.8c-0.9,0-9.1,0.4-9.1,12.7v73.7c0,12.5,8.7,12.7,9.1,12.7c0.9,0,9.1-0.4,9.1-12.7V61.5
			C22.7,60.2,22.4,48.8,13.5,48.8z"/>
	</g>
	<g class="st2">
		<path class="st3" d="M186.8,152c-4.2,0-12.1-3.5-12.1-16.8V61.5c0-13.3,7.9-16.8,12.1-16.8c9.6,0,12.1,11,12.1,16.8v73.7
			C198.9,148.5,191,152,186.8,152z M186.8,48.8c-0.9,0-9.1,0.4-9.1,12.7v73.7c0,12.5,8.7,12.7,9.1,12.7c0.9,0,9.1-0.4,9.1-12.7V61.5
			C195.9,60.2,195.6,48.8,186.8,48.8z"/>
	</g>
	<g class="st2">
		<path class="st3" d="M140.6,237.7c-9.1,0-16.3-17.1-16.3-39c0-21.9,7.2-39,16.3-39c9.1,0,16.3,17.1,16.3,39
			C156.9,220.5,149.7,237.7,140.6,237.7z M140.6,163.8c-7.2,0-13.3,16-13.3,34.9c0,18.9,6.1,34.9,13.3,34.9s13.3-16,13.3-34.9
			C153.9,179.8,147.8,163.8,140.6,163.8z"/>
	</g>
	<ellipse class="st1" cx="140.6" cy="198.7" rx="4.4" ry="11"/>
	<g class="st2">
		<path class="st3" d="M77.2,237.7c-9.1,0-16.3-17.1-16.3-39c0-21.9,7.2-39,16.3-39c9.1,0,16.3,17.1,16.3,39
			C93.6,220.5,86.4,237.7,77.2,237.7z M77.2,163.8c-7.2,0-13.3,16-13.3,34.9c0,18.9,6.1,34.9,13.3,34.9c7.2,0,13.3-16,13.3-34.9
			C90.6,179.8,84.5,163.8,77.2,163.8z"/>
	</g>
	<ellipse class="st1" cx="77.2" cy="198.7" rx="4.4" ry="11"/>
	<g class="st2">
		<g>
			<path class="st3" d="M140.6,237.7h-14.8c-9.1,0-16.3-17.1-16.3-39c0-21.9,7.2-39,16.3-39h14.8c0.8,0,1.5,0.9,1.5,2.1
				c0,1.1-0.7,2.1-1.5,2.1c-7.2,0-13.3,16-13.3,34.9c0,18.9,6.1,34.9,13.3,34.9c0.8,0,1.5,0.9,1.5,2.1
				C142.1,236.7,141.4,237.7,140.6,237.7z M125.8,163.8c-7.2,0-13.3,16-13.3,34.9c0,18.9,6.1,34.9,13.3,34.9h7.4
				c-5.3-6.3-8.9-19.4-8.9-34.9c0-15.4,3.6-28.5,8.9-34.9L125.8,163.8L125.8,163.8z"/>
		</g>
		<g>
			<polygon class="st3" points="140.6,235.6 140.6,235.6 140.6,235.6 			"/>
			<path class="st3" d="M140.6,237.7L140.6,237.7c-0.9,0-1.5-0.9-1.5-2.1c0-1.1,0.7-2.1,1.5-2.1s1.5,0.9,1.5,2.1
				C142.1,236.7,141.4,237.7,140.6,237.7z"/>
		</g>
	</g>
	<g class="st2">
		<g>
			<polygon class="st3" points="77.2,235.6 77.3,235.6 77.3,235.6 			"/>
			<path class="st3" d="M77.3,237.7L77.3,237.7c-0.9,0-1.5-0.9-1.5-2.1c0-1.1,0.7-2.1,1.5-2.1s1.5,0.9,1.5,2.1
				C78.7,236.7,78.1,237.7,77.3,237.7z"/>
		</g>
		<g>
			<path class="st3" d="M77.2,237.7H62.4c-9.1,0-16.3-17.1-16.3-39c0-21.9,7.2-39,16.3-39h14.8c0.8,0,1.5,0.9,1.5,2.1
				c0,1.1-0.7,2.1-1.5,2.1c-7.2,0-13.3,16-13.3,34.9c0,18.9,6.1,34.9,13.3,34.9c0.8,0,1.5,0.9,1.5,2.1
				C78.7,236.7,78.1,237.7,77.2,237.7z M62.4,163.8c-7.2,0-13.3,16-13.3,34.9c0,18.9,6.1,34.9,13.3,34.9h7.4
				c-5.3-6.3-8.9-19.4-8.9-34.9c0-15.4,3.6-28.5,8.9-34.9L62.4,163.8L62.4,163.8z"/>
		</g>
	</g>
</g>
<g class="st0">
	<path class="st1" d="M167.6,147.4H35.5c-0.8,0-1.5-0.9-1.5-2.1c0-1.1,0.7-2.1,1.5-2.1H164L73.1,17.1c-0.6-0.8-0.6-2.1,0-2.9
		c0.6-0.8,1.5-0.8,2.1,0l93.4,129.6c0.4,0.6,0.6,1.5,0.3,2.3C168.7,146.9,168.2,147.4,167.6,147.4z"/>
	<path class="st1" d="M142.8,146.3c-0.4,0-0.7-0.5-0.7-1c0-9.5,2.7-18.3,7.5-25c0.3-0.4,0.8-0.4,1.1,0c0.3,0.4,0.3,1.1,0,1.5
		c-4.5,6.3-7,14.7-7,23.6C143.6,145.9,143.2,146.3,142.8,146.3z"/>
	<g class="st2">
		<path class="st3" d="M98.8,5.9c-0.4,0-0.7-0.5-0.7-1v-28.2c0-0.6,0.3-1,0.7-1c0.4,0,0.7,0.5,0.7,1V4.9C99.6,5.5,99.2,5.9,98.8,5.9
			z"/>
		<path class="st3" d="M98.8-22.3c-2.9,0-5.2-3.3-5.2-7.3c0-4,2.3-7.3,5.2-7.3c2.9,0,5.2,3.3,5.2,7.3
			C104.1-25.5,101.7-22.3,98.8-22.3z M98.8-34.7c-2.1,0-3.7,2.3-3.7,5.2c0,2.9,1.7,5.2,3.7,5.2c2.1,0,3.7-2.3,3.7-5.2
			C102.6-32.4,100.9-34.7,98.8-34.7z"/>
	</g>
	<g class="st2">
		<path class="st3" d="M186.8,152.7c-4.2,0-12.1-3.5-12.1-16.8V62.2c0-5.8,2.5-16.8,12.1-16.8c4.2,0,12.1,3.5,12.1,16.8v73.7
			C198.9,149.2,191,152.7,186.8,152.7z M186.8,49.5c-9,0-9.1,12.2-9.1,12.7v73.7c0,12.5,8.7,12.7,9.1,12.7c0.9,0,9.1-0.4,9.1-12.7
			V62.2C195.9,49.7,187.2,49.5,186.8,49.5z"/>
	</g>
	<g class="st2">
		<path class="st3" d="M13.5,152.7c-4.2,0-12.1-3.5-12.1-16.8V62.2c0-5.8,2.5-16.8,12.1-16.8c4.2,0,12.1,3.5,12.1,16.8v73.7
			C25.6,149.2,17.7,152.7,13.5,152.7z M13.5,49.5c-9,0-9.1,12.2-9.1,12.7v73.7c0,12.2,8.2,12.7,9.1,12.7c1,0,9.1-0.5,9.1-12.7V62.2
			C22.7,49.7,13.9,49.5,13.5,49.5z"/>
	</g>
	<g class="st2">
		<path class="st3" d="M135.2,237c-9.1,0-16.3-17.1-16.3-39c0-21.9,7.2-39,16.3-39s16.3,17.1,16.3,39
			C151.6,219.9,144.4,237,135.2,237z M135.2,163.2c-7.2,0-13.3,16-13.3,34.9c0,18.9,6.1,34.9,13.3,34.9s13.3-16,13.3-34.9
			C148.6,179.1,142.5,163.2,135.2,163.2z"/>
	</g>
	<ellipse class="st1" cx="135.2" cy="198" rx="4.4" ry="10.9"/>
	<g class="st2">
		<path class="st3" d="M71.9,237c-9.1,0-16.3-17.1-16.3-39c0-21.9,7.2-39,16.3-39c9.1,0,16.3,17.1,16.3,39
			C88.2,219.9,81.1,237,71.9,237z M71.9,163.2c-7.2,0-13.3,16-13.3,34.9c0,18.9,6.1,34.9,13.3,34.9c7.2,0,13.3-16,13.3-34.9
			C85.3,179.1,79.1,163.2,71.9,163.2z"/>
	</g>
	<ellipse class="st1" cx="71.9" cy="198" rx="4.4" ry="10.9"/>
	<g class="st2">
		<path class="st3" d="M64.1,77v25.1h2.9v2.7h-2.9V116H62v-11.1H48.8v-2.7L62,77H64.1z M62,102.1V81.8l-10.7,20.3H62z"/>
		<path class="st3" d="M73.7,94.8c1.3-2.1,3.4-3.2,5.5-3.2c3.7,0,7.9,2.9,7.9,11.3v2.4c0,8.3-4.2,11.3-7.9,11.3
			c-3.7,0-7.9-2.9-7.9-11.3v-0.4h2.1v0.4c0,5.2,2.4,8.4,5.8,8.4s5.8-3.2,5.8-8.4v-2.4c0-5.2-2.4-8.4-5.8-8.4c-2.2,0-4.1,1.5-5.1,4
			h-2.5V77H86v2.8H73.7L73.7,94.8L73.7,94.8z"/>
		<path class="st3" d="M97.6,76.7c3.5,0,6.3,3.9,6.3,8.7c0,4.8-2.8,8.7-6.3,8.7c-3.4,0-6.3-3.9-6.3-8.7
			C91.3,80.6,94.1,76.7,97.6,76.7z M97.6,91.7c2.5,0,4.5-2.8,4.5-6.2c0-3.5-2-6.2-4.5-6.2c-2.5,0-4.5,2.8-4.5,6.2
			C93.1,88.9,95.1,91.7,97.6,91.7z"/>
	</g>
	<g class="st2">
		<g>
			<path class="st3" d="M135.2,237h-14.8c-9.2,0-16.3-17.1-16.3-39c0-21.9,7.2-39,16.3-39h14.8c0.8,0,1.5,0.9,1.5,2.1
				c0,1.1-0.7,2.1-1.5,2.1c-7.2,0-13.3,16-13.3,34.9c0,18.9,6.1,34.9,13.3,34.9c0.8,0,1.5,0.9,1.5,2.1
				C136.7,236.1,136.1,237,135.2,237z M120.4,163.2c-7.2,0-13.3,16-13.3,34.9c0,18.9,6.1,34.9,13.3,34.9h7.4
				c-5.3-6.4-8.9-19.4-8.9-34.9c0-15.4,3.6-28.5,8.9-34.9L120.4,163.2L120.4,163.2z"/>
		</g>
		<g>
			<polygon class="st3" points="135.2,234.9 135.3,234.9 135.3,234.9 			"/>
			<path class="st3" d="M135.3,237L135.3,237c-0.9,0-1.5-0.9-1.5-2.1c0-1.1,0.7-2.1,1.5-2.1c0.8,0,1.5,0.9,1.5,2.1
				C136.8,236.1,136.1,237,135.3,237z"/>
		</g>
	</g>
	<g class="st2">
		<g>
			<polygon class="st3" points="71.9,234.9 71.9,234.9 71.9,234.9 			"/>
			<path class="st3" d="M71.9,237L71.9,237c-0.9,0-1.5-0.9-1.5-2.1c0-1.1,0.7-2.1,1.5-2.1c0.8,0,1.5,0.9,1.5,2.1
				C73.4,236.1,72.8,237,71.9,237z"/>
		</g>
		<g>
			<path class="st3" d="M71.9,237H57.1c-9.1,0-16.3-17.1-16.3-39c0-21.9,7.2-39,16.3-39h14.8c0.8,0,1.5,0.9,1.5,2.1
				c0,1.1-0.7,2.1-1.5,2.1c-7.2,0-13.3,16-13.3,34.9c0,18.9,6.1,34.9,13.3,34.9c0.8,0,1.5,0.9,1.5,2.1C73.4,236.1,72.7,237,71.9,237
				z M57.1,163.2c-7.2,0-13.3,16-13.3,34.9c0,18.9,6.1,34.9,13.3,34.9h7.4c-5.3-6.4-8.9-19.4-8.9-34.9c0-15.4,3.6-28.5,8.9-34.9
				L57.1,163.2L57.1,163.2z"/>
		</g>
	</g>
</g>
<g class="st0">
	<path class="st1" d="M100.8,224.6h-1.3c-12.7,0-23-14.3-23-32v-1.9c0-8.1,2.2-15.8,6.2-21.8V-0.1c0-13.4,7.9-24.3,17.5-24.3
		c9.7,0,17.5,10.9,17.5,24.3V169c4,5.9,6.2,13.6,6.2,21.8v1.9C123.9,210.3,113.5,224.6,100.8,224.6z M100.2-20.3
		c-8,0-14.5,9.1-14.5,20.2v169.9c0,0.5-0.2,1.1-0.4,1.4c-3.7,5.2-5.7,12.2-5.7,19.5v1.9c0,15.3,9,27.8,20,27.8h1.3
		c11,0,20-12.5,20-27.8v-1.9c0-7.3-2-14.3-5.7-19.5c-0.3-0.4-0.4-0.9-0.4-1.4V-0.1C114.7-11.2,108.2-20.3,100.2-20.3z"/>
	<path class="st1" d="M116.2,139.2H85.4c-0.8,0-1.5-0.9-1.5-2.1s0.7-2.1,1.5-2.1h30.9c0.8,0,1.5,0.9,1.5,2.1S117,139.2,116.2,139.2z
		"/>
	<path class="st1" d="M114.9,159.7h-10.8c-0.4,0-0.7-0.5-0.7-1s0.3-1,0.7-1h10.8c0.4,0,0.7,0.5,0.7,1S115.3,159.7,114.9,159.7z"/>
	<path class="st1" d="M114.9,138.1h-17c-0.4,0-0.7-0.5-0.7-1s0.3-1,0.7-1h17c0.4,0,0.7,0.5,0.7,1S115.3,138.1,114.9,138.1z"/>
	<path class="st1" d="M114.9,116.6h-10.8c-0.4,0-0.7-0.5-0.7-1c0-0.6,0.3-1,0.7-1h10.8c0.4,0,0.7,0.5,0.7,1
		C115.6,116.1,115.3,116.6,114.9,116.6z"/>
	<path class="st1" d="M114.9,93.4H97.6c-0.4,0-0.7-0.5-0.7-1s0.3-1,0.7-1h17.3c0.4,0,0.7,0.5,0.7,1S115.3,93.4,114.9,93.4z"/>
	<path class="st1" d="M114.9,69.5h-11c-0.4,0-0.7-0.5-0.7-1c0-0.6,0.3-1,0.7-1h11c0.4,0,0.7,0.5,0.7,1
		C115.6,69,115.3,69.5,114.9,69.5z"/>
	<path class="st1" d="M114.9,45.5H97.6c-0.4,0-0.7-0.5-0.7-1s0.3-1,0.7-1h17.3c0.4,0,0.7,0.5,0.7,1S115.3,45.5,114.9,45.5z"/>
	<path class="st1" d="M116.2,23.9h-12.7c-0.4,0-0.7-0.5-0.7-1c0-0.6,0.3-1,0.7-1h12.7c0.4,0,0.7,0.5,0.7,1
		C117,23.5,116.6,23.9,116.2,23.9z"/>
	<path class="st1" d="M114.9,0.8H97.6c-0.4,0-0.7-0.5-0.7-1s0.3-1,0.7-1h17.3c0.4,0,0.7,0.5,0.7,1S115.3,0.8,114.9,0.8z"/>
</g>
<g class="st0">
	<g class="st2">
		<path class="st3" d="M52.3,46.2c-0.8,0-1.4-0.9-1.5-1.9c0-1,0.5-2,1.2-2.2c0.4-0.3,3.5-4.2,3.5-30.5S52.4-18.6,52-18.9
			c-0.1,0-0.3-0.1-0.4-0.2c-0.4-0.3-0.6-0.7-0.7-1.2c0-0.2-0.1-0.5-0.1-0.7c0-1.1,0.7-1.9,1.5-1.9l0,0c0,0,0.1,0,0.2,0l0,0l0,0
			c0,0,0,0,0.1,0L169.7-3.5c0.1,0,6,0.2,6,15.1c0,14.9-5.9,15.1-6.2,15.1l-117,19.5c0,0,0,0,0,0C52.5,46.2,52.4,46.2,52.3,46.2z
			 M55.8-18.3c1.4,4.6,2.7,13.3,2.7,29.9s-1.2,25.3-2.7,29.9l113.6-18.9c1.3-0.1,3.4-2.5,3.4-11s-2.1-10.9-3.2-11L55.8-18.3z"/>
	</g>
	<g class="st2">
		<path class="st3" d="M127.4,32.2c-0.2,0-0.4-0.1-0.5-0.3c-0.3-0.4-0.3-1.1,0-1.5c0-0.1,4.5-6.4,4.5-18.8s-4.4-18.7-4.5-18.8
			c-0.3-0.4-0.3-1.1,0-1.5c0.3-0.4,0.8-0.4,1.1,0c0.2,0.3,4.9,7,4.9,20.3s-4.7,20-4.9,20.3C127.7,32.1,127.5,32.2,127.4,32.2z"/>
	</g>
	<g class="st2">
		<path class="st3" d="M89.8,38.7c-0.2,0-0.4-0.1-0.5-0.3c-0.3-0.4-0.3-1.1,0-1.5c0-0.1,4.5-6.6,4.5-25.3c0-18.8-4.4-25.3-4.5-25.3
			c-0.3-0.4-0.3-1.1,0-1.5c0.3-0.4,0.8-0.4,1,0c0.2,0.3,4.9,7,4.9,26.8s-4.7,26.5-4.9,26.8C90.2,38.6,90,38.7,89.8,38.7z"/>
	</g>
	<g class="st2">
		<path class="st3" d="M52.3,46.2c-0.4,0-0.8-0.2-1.1-0.6L27.8,13.1c-0.6-0.8-0.6-2.1,0-2.9l23.5-32.6c0.6-0.8,1.5-0.8,2.1,0
			s0.6,2.1,0,2.9L30.9,11.6l22.4,31.1c0.6,0.8,0.6,2.1,0,2.9C53.1,46,52.7,46.2,52.3,46.2z"/>
	</g>
	<path class="st1" d="M28.4,219.9c0,1.8-0.9,3.3-1.9,3.3l0,0c-1.1,0-1.9-1.5-1.9-3.3V-17.7c0-1.8,0.9-3.3,1.9-3.3l0,0
		c1.1,0,1.9,1.5,1.9,3.3V219.9z"/>
</g>
<g class="st0">
	<g class="st2">
		<g>
			<path class="st3" d="M165,129.9H35.6c-5,0-9.1-5.7-9.1-12.6V12.9c0-6.9,4.1-12.6,9.1-12.6H165c5,0,9.1,5.6,9.1,12.6v104.4
				C174,124.2,170,129.9,165,129.9z M35.6,4.4c-3.4,0-6.1,3.8-6.1,8.5v104.4c0,4.7,2.7,8.5,6.1,8.5H165c3.4,0,6.1-3.8,6.1-8.5V12.9
				c0-4.7-2.7-8.5-6.1-8.5H35.6z"/>
		</g>
		<path class="st3" d="M165.8,118.9H34.8c-0.4,0-0.7-0.5-0.7-1V12.3c0-0.6,0.3-1,0.7-1h130.9c0.4,0,0.7,0.5,0.7,1v105.6
			C166.5,118.5,166.2,118.9,165.8,118.9z M35.6,116.9H165V13.3H35.6L35.6,116.9L35.6,116.9z"/>
	</g>
	<g class="st2">
		<path class="st3" d="M190.4,190.8H9.9c-4.8,0-8.1-1.6-9.1-4.4c-0.3-0.9-0.7-2.6,0.4-4.7L27.5,133c2-3.7,7-6.6,11.5-6.6h122.3
			c4.4,0,9.5,2.9,11.5,6.6l26.3,48.8c1.1,2,0.7,3.8,0.4,4.7C198.1,190.4,192.7,190.8,190.4,190.8z M39,130.6c-3.5,0-7.6,2.2-9.1,4.9
			L3.6,184.3c-0.1,0.2-0.1,0.3-0.1,0.4c0.1,0.5,2,2.1,6.5,2.1h180.6c4.5,0,6.3-1.6,6.5-2.1l0,0c0,0,0-0.1-0.2-0.3l-26.3-48.8
			c-1.4-2.7-5.6-4.9-9.1-4.9L39,130.6L39,130.6z"/>
	</g>
	<g class="st2">
		<path class="st3" d="M117.5,105H83.1c-0.4,0-0.7-0.5-0.7-1s0.3-1,0.7-1h34.4c0.4,0,0.7,0.5,0.7,1S117.9,105,117.5,105z"/>
		<g>
			<path class="st3" d="M100,97.8c-0.4,0-0.7-0.5-0.7-1V78.9c0-0.6,0.3-1,0.7-1c0.4,0,0.7,0.5,0.7,1v17.9
				C100.7,97.3,100.4,97.8,100,97.8z"/>
			<path class="st3" d="M100,97.8c-0.2,0-0.4-0.1-0.5-0.3l-4.3-6c-0.3-0.4-0.3-1.1,0-1.5s0.8-0.4,1.1,0l3.8,5.2l3.8-5.2
				c0.3-0.4,0.8-0.4,1.1,0s0.3,1.1,0,1.5l-4.3,6C100.4,97.7,100.2,97.8,100,97.8z"/>
		</g>
	</g>
	<path class="st1" d="M181.7,169H19.5c-0.3,0-0.5-0.2-0.7-0.5c-0.1-0.3-0.1-0.8,0-1.1l14.8-30.2c0.1-0.3,0.4-0.5,0.6-0.5H167
		c0.2,0,0.5,0.2,0.6,0.5l14.7,30.2c0.2,0.3,0.2,0.7,0,1.1C182.3,168.8,182,169,181.7,169z M20.9,166.9h159.4l-13.7-28.1H34.7
		L20.9,166.9z"/>
	<g class="st2">
		<path class="st3" d="M111.1,75.4c-0.4,0-0.8-0.2-1.1-0.7c-0.1-0.2-3.4-5.2-9.9-5.2c-6.5,0-9.8,5-9.9,5.2c-0.5,0.9-1.5,0.9-2.1,0.2
			c-0.6-0.7-0.7-2-0.1-2.9c0.2-0.3,4.2-6.6,12.2-6.6c8,0,12,6.3,12.2,6.6c0.5,0.9,0.5,2.2-0.2,2.9C111.8,75.2,111.4,75.4,111.1,75.4
			z"/>
		<path class="st3" d="M115.7,67.7c-0.4,0-0.8-0.2-1.1-0.7c-0.1-0.2-5-7.3-14.5-7.3S85.6,66.8,85.5,67c-0.5,0.8-1.5,0.9-2.1,0.2
			c-0.6-0.8-0.7-2.1-0.1-2.9c0.2-0.4,5.8-8.7,16.8-8.7c11,0,16.5,8.4,16.8,8.7c0.5,0.9,0.5,2.2-0.1,2.9
			C116.4,67.5,116,67.7,115.7,67.7z"/>
		<path class="st3" d="M120.3,60c-0.4,0-0.8-0.2-1.1-0.7c-0.1-0.2-6.5-9.5-19.2-9.5S81,59.2,80.9,59.3c-0.6,0.8-1.5,0.9-2.1,0.1
			c-0.6-0.8-0.7-2.1-0.1-2.9c0.3-0.4,7.4-10.8,21.4-10.8s21.1,10.4,21.4,10.8c0.6,0.8,0.5,2.1-0.1,2.9C121,59.8,120.6,60,120.3,60z"
			/>
		<path class="st3" d="M124.9,52.3c-0.4,0-0.8-0.2-1.1-0.7C123.7,51.5,115.7,40,100,40S76.3,51.5,76.2,51.7
			c-0.6,0.8-1.5,0.9-2.1,0.1c-0.6-0.8-0.6-2.1-0.1-2.9c0.4-0.5,8.9-13,26-13c17,0,25.6,12.4,26,13c0.6,0.8,0.5,2.1-0.1,2.9
			C125.6,52.2,125.2,52.3,124.9,52.3z"/>
		<path class="st3" d="M129.5,44.7c-0.4,0-0.8-0.2-1.1-0.6c-0.1-0.1-9.7-13.8-28.4-13.8S71.7,43.9,71.6,44c-0.6,0.8-1.5,0.9-2.1,0.1
			s-0.6-2.1-0.1-2.9C69.9,40.6,80,26.1,100,26.1s30.1,14.5,30.6,15.1c0.6,0.8,0.5,2.1-0.1,2.9C130.2,44.5,129.9,44.7,129.5,44.7z"/>
	</g>
	<g class="st2">
		<path class="st3" d="M190.4,199.9H9.9c-2.4,0-6.7-0.4-8.6-3.3c-0.6-1-0.9-2.1-0.8-3.3l0-8.3c0-0.2,0-0.4,0-0.6v-0.1
			c0-1.8,1.8-2.7,2.7-1.3c0.3,0.5,0.4,1.1,0.3,1.7v0.1c0.2,0.5,2.1,2,6.4,2h180.6c4.3,0,6.2-1.4,6.4-2v-0.2
			c-0.1-0.6,0.1-1.1,0.3-1.6c0.8-1.4,2.6-0.5,2.7,1.2c0,0.3,0,0.7,0,1v8.3c0.1,0.9-0.2,2.1-0.8,3.1
			C197.2,199.4,192.9,199.9,190.4,199.9z M3.4,189.5v4c0.1,0.7,2,2.3,6.4,2.3h180.6c4.4,0,6.3-1.5,6.4-2.1l0-4.2
			c-1.6,0.9-3.8,1.4-6.4,1.4H9.9C7.2,190.8,5,190.4,3.4,189.5z"/>
	</g>
</g>
<g>
	<g>
		<g>
			<path class="st9" d="M165,129.9H35.6c-5,0-9.1-5.7-9.1-12.6V12.9c0-6.9,4.1-12.6,9.1-12.6H165c5,0,9.1,5.6,9.1,12.6v104.4
				C174,124.2,170,129.9,165,129.9z M35.6,4.4c-3.4,0-6.1,3.8-6.1,8.5v104.4c0,4.7,2.7,8.5,6.1,8.5H165c3.4,0,6.1-3.8,6.1-8.5V12.9
				c0-4.7-2.7-8.5-6.1-8.5H35.6z"/>
		</g>
		<path class="st9" d="M165.8,118.9H34.8c-0.4,0-0.7-0.5-0.7-1V12.3c0-0.6,0.3-1,0.7-1h130.9c0.4,0,0.7,0.5,0.7,1v105.6
			C166.5,118.5,166.2,118.9,165.8,118.9z M35.6,116.9H165V13.3H35.6L35.6,116.9L35.6,116.9z"/>
	</g>
	<g>
		<path class="st9" d="M190.4,190.8H9.9c-4.8,0-8.1-1.6-9.1-4.4c-0.3-0.9-0.7-2.6,0.4-4.7L27.5,133c2-3.7,7-6.6,11.5-6.6h122.3
			c4.4,0,9.5,2.9,11.5,6.6l26.3,48.8c1.1,2,0.7,3.8,0.4,4.7C198.1,190.4,192.7,190.8,190.4,190.8z M39,130.6c-3.5,0-7.6,2.2-9.1,4.9
			L3.6,184.3c-0.1,0.2-0.1,0.3-0.1,0.4c0.1,0.5,2,2.1,6.5,2.1h180.6c4.5,0,6.3-1.6,6.5-2.1l0,0c0,0,0-0.1-0.2-0.3l-26.3-48.8
			c-1.4-2.7-5.6-4.9-9.1-4.9L39,130.6L39,130.6z"/>
	</g>
	<path class="st9" d="M117.5,105H83.1c-0.4,0-0.7-0.5-0.7-1s0.3-1,0.7-1h34.4c0.4,0,0.7,0.5,0.7,1S117.9,105,117.5,105z"/>
	<g>
		<path class="st9" d="M100,77.9c0.4,0,0.7,0.5,0.7,1v17.9c0,0.6-0.3,1-0.7,1s-0.7-0.5-0.7-1V78.9C99.3,78.3,99.6,77.9,100,77.9z"/>
		<path class="st9" d="M100,77.9c0.2,0,0.4,0.1,0.5,0.3l4.3,6c0.3,0.4,0.3,1.1,0,1.5s-0.8,0.4-1.1,0l-3.8-5.2l-3.8,5.2
			c-0.3,0.4-0.8,0.4-1.1,0c-0.3-0.4-0.3-1.1,0-1.5l4.3-6C99.6,78,99.8,77.9,100,77.9z"/>
	</g>
	<path class="st9" d="M181.7,169H19.5c-0.3,0-0.5-0.2-0.7-0.5c-0.1-0.3-0.1-0.8,0-1.1l14.8-30.2c0.1-0.3,0.4-0.5,0.6-0.5H167
		c0.2,0,0.5,0.2,0.6,0.5l14.7,30.2c0.2,0.3,0.2,0.7,0,1.1C182.3,168.8,182,169,181.7,169z M20.9,166.9h159.4l-13.7-28.1H34.7
		L20.9,166.9z"/>
	<g>
		<path class="st9" d="M111.1,75.4c-0.4,0-0.8-0.2-1.1-0.7c-0.1-0.2-3.4-5.2-9.9-5.2c-6.5,0-9.8,5-9.9,5.2c-0.5,0.9-1.5,0.9-2.1,0.2
			c-0.6-0.7-0.7-2-0.1-2.9c0.2-0.3,4.2-6.6,12.2-6.6c8,0,12,6.3,12.2,6.6c0.5,0.9,0.5,2.2-0.2,2.9C111.8,75.2,111.4,75.4,111.1,75.4
			z"/>
		<path class="st9" d="M115.7,67.7c-0.4,0-0.8-0.2-1.1-0.7c-0.1-0.2-5-7.3-14.5-7.3S85.6,66.8,85.5,67c-0.5,0.8-1.5,0.9-2.1,0.2
			c-0.6-0.8-0.7-2.1-0.1-2.9c0.2-0.4,5.8-8.7,16.8-8.7c11,0,16.5,8.4,16.8,8.7c0.5,0.9,0.5,2.2-0.1,2.9
			C116.4,67.5,116,67.7,115.7,67.7z"/>
		<path class="st9" d="M120.3,60c-0.4,0-0.8-0.2-1.1-0.7c-0.1-0.2-6.5-9.5-19.2-9.5S81,59.2,80.9,59.3c-0.6,0.8-1.5,0.9-2.1,0.1
			c-0.6-0.8-0.7-2.1-0.1-2.9c0.3-0.4,7.4-10.8,21.4-10.8s21.1,10.4,21.4,10.8c0.6,0.8,0.5,2.1-0.1,2.9C121,59.8,120.6,60,120.3,60z"
			/>
		<path class="st9" d="M124.9,52.3c-0.4,0-0.8-0.2-1.1-0.7C123.7,51.5,115.7,40,100,40S76.3,51.5,76.2,51.7
			c-0.6,0.8-1.5,0.9-2.1,0.1c-0.6-0.8-0.6-2.1-0.1-2.9c0.4-0.5,8.9-13,26-13c17,0,25.6,12.4,26,13c0.6,0.8,0.5,2.1-0.1,2.9
			C125.6,52.2,125.2,52.3,124.9,52.3z"/>
		<path class="st9" d="M129.5,44.7c-0.4,0-0.8-0.2-1.1-0.6c-0.1-0.1-9.7-13.8-28.4-13.8S71.7,43.9,71.6,44c-0.6,0.8-1.5,0.9-2.1,0.1
			s-0.6-2.1-0.1-2.9C69.9,40.6,80,26.1,100,26.1s30.1,14.5,30.6,15.1c0.6,0.8,0.5,2.1-0.1,2.9C130.2,44.5,129.9,44.7,129.5,44.7z"/>
	</g>
	<g>
		<path class="st9" d="M190.4,199.9H9.9c-2.4,0-6.7-0.4-8.6-3.3c-0.6-1-0.9-2.1-0.8-3.3l0-8.3c0-0.2,0-0.4,0-0.6v-0.1
			c0-1.8,1.8-2.7,2.7-1.3c0.3,0.5,0.4,1.1,0.3,1.7v0.1c0.2,0.5,2.1,2,6.4,2h180.6c4.3,0,6.2-1.4,6.4-2v-0.2
			c-0.1-0.6,0.1-1.1,0.3-1.6c0.8-1.4,2.6-0.5,2.7,1.2c0,0.3,0,0.7,0,1v8.3c0.1,0.9-0.2,2.1-0.8,3.1
			C197.2,199.4,192.9,199.9,190.4,199.9z M3.4,189.5v4c0.1,0.7,2,2.3,6.4,2.3h180.6c4.4,0,6.3-1.5,6.4-2.1l0-4.2
			c-1.6,0.9-3.8,1.4-6.4,1.4H9.9C7.2,190.8,5,190.4,3.4,189.5z"/>
	</g>
</g>
</svg>
