<?xml version="1.0" encoding="utf-8"?>
<!-- Generator: Adobe Illustrator 22.0.1, SVG Export Plug-In . SVG Version: 6.00 Build 0)  -->
<svg version="1.1" id="Layer_1" xmlns="http://www.w3.org/2000/svg" xmlns:xlink="http://www.w3.org/1999/xlink" x="0px" y="0px"
	 viewBox="0 0 195 195" style="enable-background:new 0 0 195 195;" xml:space="preserve">
<style type="text/css">
	.st0{fill:#EF4137;}
</style>
<g>
	<path class="st0" d="M45.8,92.9c-6.9,11.2-10,18.3-10.1,18.6c-0.4,0.9-0.2,2,0.5,2.7l44.7,44.7c0.5,0.5,1.1,0.7,1.7,0.7
		c0.3,0,0.7-0.1,1-0.2c0.3-0.1,7.4-3.2,18.6-10.1c1.1-0.7,1.5-2.2,0.8-3.4c-0.7-1.1-2.2-1.5-3.4-0.8c-7.9,4.9-13.8,7.9-16.4,9.1
		l-42.3-42.3c1.2-2.6,4.2-8.5,9.1-16.4c0.7-1.1,0.4-2.6-0.8-3.4C48,91.3,46.5,91.7,45.8,92.9z"/>
	<path class="st0" d="M67.3,153c-0.7-0.7-1.8-0.9-2.8-0.5c-4.3,2-9.6,1.8-14.1-0.6c-1.2-0.6-2.7-0.2-3.3,1c-0.6,1.2-0.2,2.7,1,3.3
		c5.3,2.9,11.5,3.4,16.8,1.4l3.1,3.2c-13.4,14.9-36,13.4-44.5,12.2c2-4.6,1.6-10,1.1-15.6c-0.8-10.1-1.6-20.5,9.7-30.3l3.4,3.4
		c-1.3,5.5-1,10.8,1,15.4c0,0,1.7,4.8-0.3,8.2c-1.2,2-3.5,3.2-6.9,3.8c-1.3,0.2-2.2,1.4-2,2.8c0.2,1.3,1.5,2.3,2.8,2
		c4.9-0.8,8.4-2.8,10.4-6.1c3.2-5.4,0.7-12.1,0.6-12.5c-1.7-4-1.9-8.7-0.4-13.6c0.2-0.9,0-1.8-0.6-2.4l-6-6c-0.9-0.9-2.3-1-3.2-0.2
		c-15.1,11.9-14,25.2-13.2,35.9c0.5,6.3,0.9,11.8-2.1,15.5c-0.5,0.7-0.7,1.5-0.4,2.3c0.3,0.8,0.9,1.4,1.8,1.6
		c0.6,0.1,6.7,1.5,14.9,1.5c12,0,28.6-2.9,39.3-16.5c0.8-1,0.7-2.3-0.2-3.2L67.3,153z"/>
	<path class="st0" d="M159,69.2c4.4-4.4,6.9-10.3,6.9-16.6s-2.4-12.2-6.9-16.6c-4.4-4.4-10.3-6.9-16.6-6.9h0
		c-6.3,0-12.2,2.4-16.6,6.9c-4.4,4.4-6.9,10.3-6.9,16.6c0,6.3,2.4,12.2,6.9,16.6c4.6,4.6,10.6,6.9,16.6,6.9S154.4,73.8,159,69.2z
		 M123.7,52.7c0-5,1.9-9.6,5.5-13.2c3.5-3.5,8.2-5.4,13.2-5.4c0,0,0,0,0,0c5,0,9.6,1.9,13.1,5.4c3.5,3.5,5.4,8.2,5.4,13.2
		c0,5-1.9,9.6-5.4,13.1c-7.3,7.3-19.1,7.3-26.3,0C125.7,62.3,123.7,57.6,123.7,52.7z"/>
	<path class="st0" d="M195,2.7c0.1-0.7-0.2-1.5-0.7-2s-1.3-0.8-2-0.7l-7.9,0.9c-4.9-0.7-50.6-6.1-99.4,42.7
		c-1.7,1.7-3.4,3.5-5.1,5.2l-29.7,0c-0.7,0-1.4,0.3-1.9,0.9L0.6,106.3c-0.8,1-0.8,2.4,0.1,3.3l6.8,6.8c0.8,0.8,2,0.9,2.9,0.4
		l27.5-15.7c1.2-0.7,1.6-2.2,0.9-3.3c-0.7-1.2-2.2-1.6-3.3-0.9L9.6,111.6l-3.9-3.9l45.6-54.1l29.6,0c0.7,0,1.3-0.3,1.8-0.8
		c1.8-1.9,3.7-3.9,5.7-5.9c25.4-25.4,50-35.3,66.2-39.1c17.5-4.1,29.2-2.2,29.3-2.2c0.2,0,0.5,0,0.7,0l5.2-0.6l-0.6,5.2
		c0,0.2,0,0.5,0,0.7c0,0.1,1.9,11.8-2.2,29.3c-3.8,16.2-13.7,40.8-39.1,66.2c-2,2-3.9,3.9-5.9,5.7c-0.5,0.5-0.8,1.1-0.8,1.8l0,29.6
		l-54.1,45.6l-3.8-3.8L99.6,160c0.7-1.1,0.4-2.6-0.8-3.4c-1.1-0.7-2.6-0.4-3.4,0.8l-17.2,27.1c-0.6,1-0.5,2.2,0.3,3l6.8,6.8
		c0.5,0.5,1.1,0.7,1.7,0.7c0.6,0,1.1-0.2,1.6-0.6l56.7-47.8c0.6-0.5,0.9-1.1,0.9-1.9l0-29.7c1.7-1.6,3.5-3.3,5.2-5.1
		c48.8-48.8,43.4-94.5,42.7-99.4L195,2.7z"/>
	<path class="st0" d="M84.8,105.8l-20.1,20.1c-1,1-1,2.5,0,3.4c0.5,0.5,1.1,0.7,1.7,0.7c0.6,0,1.2-0.2,1.7-0.7l20.1-20.1
		c1-1,1-2.5,0-3.4C87.3,104.8,85.8,104.8,84.8,105.8z"/>
	<path class="st0" d="M74.8,95.7l-20.1,20.1c-1,1-1,2.5,0,3.4c0.5,0.5,1.1,0.7,1.7,0.7c0.6,0,1.2-0.2,1.7-0.7l20.1-20.1
		c1-1,1-2.5,0-3.4S75.7,94.7,74.8,95.7z"/>
	<path class="st0" d="M74.6,139.2c0.5,0.5,1.1,0.7,1.7,0.7s1.2-0.2,1.7-0.7l20.1-20.1c1-1,1-2.5,0-3.4c-1-1-2.5-1-3.4,0l-20.1,20.1
		C73.6,136.7,73.6,138.3,74.6,139.2z"/>
	<path class="st0" d="M74.2,61.8H51.8c-1.3,0-2.4,1.1-2.4,2.4c0,1.3,1.1,2.4,2.4,2.4h22.4c1.3,0,2.4-1.1,2.4-2.4
		C76.6,62.8,75.5,61.8,74.2,61.8z"/>
	<path class="st0" d="M128.4,120.8v22.4c0,1.3,1.1,2.4,2.4,2.4s2.4-1.1,2.4-2.4v-22.4c0-1.3-1.1-2.4-2.4-2.4
		S128.4,119.5,128.4,120.8z"/>
</g>
</svg>
