<?xml version="1.0" encoding="utf-8"?>
<!-- Generator: Adobe Illustrator 22.0.1, SVG Export Plug-In . SVG Version: 6.00 Build 0)  -->
<svg version="1.1" id="Layer_1" xmlns="http://www.w3.org/2000/svg" xmlns:xlink="http://www.w3.org/1999/xlink" x="0px" y="0px"
	 viewBox="0 0 110 170" style="enable-background:new 0 0 110 170;" xml:space="preserve">
<style type="text/css">
	.st0{fill:#D7E0E5;}
</style>
<g>
	<path class="st0" d="M72.8,127.4c1.2,4.2,5,6.9,9.2,6.9c0.9,0,1.8-0.1,2.7-0.4c5.1-1.5,8-6.8,6.5-11.9L79.4,81.8
		c-0.7-2.4-2.3-4.4-4.5-5.7c-0.6,0.4-1.2,0.8-1.8,1.1c-6.3,3.5-14.6,5.6-26.3,6.7c-0.2,0-0.5,0-0.7,0c-4,0-7.2-3-7.6-7
		c-0.2-2,0.4-4,1.7-5.6c1.3-1.6,3.1-2.6,5.2-2.7c7.1-0.7,13.1-1.8,17.2-3.4c0.3-0.1,0.6-0.3,0.9-0.4l2.9-14.3c1.2,1.5,2.2,3.1,3,4.6
		c0.4,0.7,0.6,1.4,0.8,2c0.3,1,0.5,1.9,0.5,2.6c0,0.2,0,0.4,0,0.6l0,0c-0.1,0.7-0.3,1.3-0.9,2.1c-0.8,1.1-2.7,2.7-6.7,4.2
		c-3.9,1.5-9.7,2.8-17.6,3.5c-3.4,0.3-5.8,3.3-5.5,6.7c0.3,3.2,3,5.6,6.1,5.6c0.2,0,0.4,0,0.6,0c11.6-1.1,19.8-3.2,25.7-6.5
		c3-1.7,5.4-3.7,7.2-6.1c1.8-2.4,2.9-5.2,3.2-7.9c0,0,0,0,0,0c0.1-0.8,0.1-1.5,0.1-2.2c0-1.2-0.1-2.4-0.3-3.5
		c-0.5-2.6-1.4-5-2.6-7.2c-2.4-4.7-5.7-8.5-8.5-11.3c-1.7-1.7-3.1-3-4-3.8c-0.8-1-2-1.8-3.4-2.1l-1.4-0.3c-3.3,2.9-7.6,4.7-12.3,4.7
		c-1.3,0-2.5-0.1-3.8-0.4c-4.9-1-9.1-3.9-11.9-8.1c-0.4-0.6-0.8-1.3-1.1-2c-0.1,0-0.2,0-0.3,0c-2.6,0.1-10.6,1-18.3,8
		c-4.1,3.8-8,9.3-10.8,16.9C1.7,58.3,0,68,0,80.4c0,2,0,4,0.1,6.1c0.1,3.3,2.8,5.9,6.1,5.9c0.1,0,0.2,0,0.3,0c3.4-0.1,6-3,5.8-6.4
		c-0.1-1.9-0.1-3.8-0.1-5.6c0-11.3,1.5-19.6,3.7-25.5c2.8-7.6,6.4-11.5,9.7-13.7c-3.1,12.6-7.7,32.9-7.7,40.9c0,0.4,0,0.7,0.1,1.1
		v77.3c0,5.3,4.2,9.5,9.4,9.5c5.2,0,9.4-4.3,9.4-9.5v-61c2.4,3.5,7,5,11.1,3.5l16-5.9L72.8,127.4z"/>
	<rect x="53.7" y="138.5" class="st0" width="56" height="31.4"/>
	
		<ellipse transform="matrix(1.170744e-03 -1 1 1.170744e-03 33.1032 67.7795)" class="st0" cx="50.5" cy="17.3" rx="17.3" ry="17.2"/>
</g>
</svg>
