<?xml version="1.0" encoding="utf-8"?>
<!-- Generator: Adobe Illustrator 22.0.1, SVG Export Plug-In . SVG Version: 6.00 Build 0)  -->
<svg version="1.1" id="Layer_1" xmlns="http://www.w3.org/2000/svg" xmlns:xlink="http://www.w3.org/1999/xlink" x="0px" y="0px"
	 viewBox="0 0 84 170" style="enable-background:new 0 0 84 170;" xml:space="preserve">
<style type="text/css">
	.st0{fill:#D7E0E5;}
</style>
<g>
	<path class="st0" d="M59.1,27.9c0-0.4,0.1-0.8,0.1-1.2c0-8.4-6.8-15.2-15.2-15.2c-8.4,0-15.2,6.8-15.2,15.2
		c0,8.4,6.8,15.2,15.2,15.2c3.4,0,6.5-1.1,9-2.9c1.4-2.4,2.9-5.3,4.5-8.9C57.8,29.2,58.4,28.5,59.1,27.9z"/>
	<path class="st0" d="M68.9,28.7c1.5,1.9,1.9,4.6,0.9,7c-4.5,10-9.2,17.2-14.3,22.1c-4.7,4.5-10.3,7.1-15.7,7.1h-0.1
		c-2.9,0-5.8-0.7-8.6-2c-2.1-1-4-2.3-5.9-4c-1.3-1.2-2.9-2.9-4.2-4.6v107.5c0,4.6,3.7,8.4,8.4,8.4c4.6,0,8.4-3.7,8.4-8.4v-61h3.1v61
		c0,4.6,3.7,8.4,8.4,8.4c4.6,0,8.4-3.7,8.4-8.4V69.9c0.5,0.1,0.9,0.2,1.4,0.2c0,0,0,0,0.1,0c1.5,0,3-0.6,4.1-1.3
		c1.8-1.4,2.7-2.9,3.6-4.7c1.2-2.6,2.2-6,3.2-10.8c1-4.8,1.9-10.9,2.8-18.8C73.1,31.8,71.4,29.4,68.9,28.7z"/>
	<path class="st0" d="M81.1,7c-3.4-2.3-6.3-0.4-6.3-0.4S75.4,3.2,72,1c-3.4-2.2-16.1-2.3-6.5,19.7C89.5,20.9,84.5,9.2,81.1,7z"/>
	<path class="st0" d="M11.2,11.4c-3.3,2.4-2.5,5.8-2.5,5.8s-3-1.7-6.2,0.8C-0.7,20.4-5,32.4,18.9,30.7C27.2,8.1,14.5,9,11.2,11.4z"
		/>
	<path class="st0" d="M21.4,52.3L21.4,52.3c0.2,0.3,1.8,2.8,4.7,5.5c1.5,1.3,3.3,2.7,5.6,3.8c2.3,1.1,5,1.9,8,1.9c0,0,0.1,0,0.1,0
		c4.8,0,10-2.2,14.7-6.7c4.8-4.5,9.4-11.4,14-21.6c1.2-2.7,0-5.9-2.7-7.2c-2.7-1.2-5.9,0-7.2,2.7c-4.2,9.4-8.3,15.1-11.6,18.2
		c-3.3,3.1-5.6,3.7-7.4,3.7c-1.1,0-2.2-0.3-3.3-0.8c-1.1-0.5-2.2-1.4-3.2-2.2l2.1,0c0.6,0.4,1.1,0.8,1.6,1c1,0.5,1.8,0.7,2.7,0.7
		c1.3,0,3.3-0.4,6.5-3.4c1-0.9,2.1-2.2,3.5-4H26.2c-0.1,0-0.1,0-0.2,0c-1,0-2,0.3-3,0.8c-1.7,1.1-2.6,2.9-2.5,4.8
		C20.6,50.5,20.8,51.4,21.4,52.3z"/>
</g>
</svg>
