<?xml version="1.0" encoding="utf-8"?>
<!-- Generator: Adobe Illustrator 22.0.1, SVG Export Plug-In . SVG Version: 6.00 Build 0)  -->
<svg version="1.1" id="Layer_1" xmlns="http://www.w3.org/2000/svg" xmlns:xlink="http://www.w3.org/1999/xlink" x="0px" y="0px"
	 viewBox="0 0 101 131" style="enable-background:new 0 0 101 131;" xml:space="preserve">
<style type="text/css">
	.st0{fill:#3F59A7;}
</style>
<g>
	<path class="st0" d="M37.5,129.5c0.7,0.9,1.8,1.5,3,1.5h48.2c1.6,0,3-1,3.6-2.4c0.1-0.2,1-2.6,1.4-3.6c1-2.8,2-5.9,2.9-9.1
		c1.5-5.1,2.7-10.1,3.4-14.9c1.6-10.2,1.2-18.4-2.2-24.1c-3.6-5.8-9.9-10-18.2-13c-4.3-1.5-8.9-2.7-13.4-3.4
		c-1.6-0.3-2.6-0.4-2.6-0.4V25c0-6.4-5.2-11.5-11.6-11.5h-1.9c-6.4,0-11.6,5.2-11.6,11.6l0,60.9L25.7,74.7
		C17.5,67.5,6,69.4,0.6,78.9c-0.8,1.5-0.7,3.2,0.3,4.4L37.5,129.5z M9.9,79.7c3.2-2.4,7.3-2.2,10.8,0.8l19.2,16.8
		c2.5,2.2,6.4,0.4,6.4-2.9V25c0-2.1,1.7-3.9,3.9-3.9h1.9c2.1,0,3.9,1.7,3.9,3.8v38.5c0,2,1.6,3.7,3.6,3.8c0.2,0,0.7,0.1,1.4,0.1
		c1.2,0.1,2.5,0.3,4,0.6c4.1,0.7,8.3,1.7,12.1,3.1c6.8,2.4,11.7,5.7,14.2,9.8c2.2,3.6,2.6,10.3,1.2,18.8c-0.7,4.4-1.8,9.1-3.2,13.9
		c-0.9,3-1.8,6-2.8,8.6c-0.3,0.9-0.3,0.9-0.3,0.9H42.4L8.7,80.8C8.7,80.8,9.2,80.2,9.9,79.7z"/>
	<path class="st0" d="M76.7,20.7C74.2,8.9,63.7,0,51.1,0C36.8,0,25.1,11.6,25.1,26c0,9.6,5.3,18.3,13.6,22.9c1.9,1,4.2,0.3,5.2-1.5
		c1-1.9,0.3-4.2-1.5-5.2c-5.9-3.2-9.6-9.3-9.6-16.1c0-10.1,8.2-18.3,18.3-18.3S69.5,15.9,69.5,26c0,6.7-3.6,12.8-9.4,16
		c-1.9,1-2.5,3.4-1.5,5.2c1,1.9,3.4,2.5,5.3,1.5c7.5-4.2,12.4-11.7,13.2-20.3h11.3v3.9c0,1,0.7,1.4,1.6,0.8l10.4-7.4
		c0.9-0.6,0.9-1.6,0-2.2L90,16.1c-0.9-0.6-1.6-0.3-1.6,0.8v3.9H76.7L76.7,20.7z"/>
</g>
</svg>
