<?xml version="1.0" encoding="utf-8"?>
<!-- Generator: Adobe Illustrator 22.0.1, SVG Export Plug-In . SVG Version: 6.00 Build 0)  -->
<svg version="1.1" id="Layer_1" xmlns="http://www.w3.org/2000/svg" xmlns:xlink="http://www.w3.org/1999/xlink" x="0px" y="0px"
	 viewBox="0 0 85 128" style="enable-background:new 0 0 85 128;" xml:space="preserve">
<style type="text/css">
	.st0{fill:#3F59A7;}
</style>
<path class="st0" d="M84.4,82.8c-0.8-0.7-2.1-0.6-2.8,0.2L67.9,99.2l-8.8-7c-0.9-0.7-2.1-0.5-2.8,0.3c-0.7,0.9-0.5,2.1,0.3,2.8
	l10.3,8.2c0.4,0.3,0.8,0.4,1.2,0.4c0.6,0,1.1-0.2,1.5-0.7l15-17.6C85.4,84.8,85.3,83.5,84.4,82.8z M70.5,116.1c-1.1,0-2,0.9-2,2
	c0,3.3-2.7,5.9-6,5.9H9.9c-3.3,0-6-2.7-6-5.9V9.9C4,6.6,6.6,4,9.9,4h52.6c3.3,0,6,2.7,6,5.9v60.5c0,1.1,0.9,2,2,2c1.1,0,2-0.9,2-2
	V36.6c1.5-0.3,2.6-1.6,2.6-3.2v-8.6c0-1.6-1.1-2.9-2.6-3.2V9.9C72.5,4.4,68,0,62.6,0H9.9C4.4,0,0,4.4,0,9.9v108.2
	c0,5.4,4.4,9.9,9.9,9.9h52.6c5,0,9.2-3.8,9.8-8.6c0.1-0.2,0.1-0.4,0.1-0.6v-0.7C72.5,117,71.6,116.1,70.5,116.1z M46.2,10.1
	c1.1,0,2-0.9,2-2s-0.9-2-2-2H26.3c-1.1,0-2,0.9-2,2s0.9,2,2,2H46.2z M30.7,117.2c0,3,2.5,5.5,5.5,5.5s5.5-2.5,5.5-5.5
	c0-3-2.5-5.5-5.5-5.5S30.7,114.2,30.7,117.2z M37.8,117.2c0,0.8-0.7,1.5-1.5,1.5c-0.9,0-1.5-0.7-1.5-1.5s0.7-1.5,1.5-1.5
	C37.1,115.7,37.8,116.3,37.8,117.2z M60,72.2c1.2,0,2.2-1,2.2-2.2V25.8c0-3.7-3.5-6.9-7.6-6.9H18.7c-4.2,0-7.6,3.4-7.6,7.6v73.7
	c0,4.2,3.4,7.6,7.6,7.6H50c1.2,0,2.2-1,2.2-2.2s-1-2.2-2.2-2.2H18.7c-1.8,0-3.2-1.4-3.2-3.2V26.5c0-1.8,1.4-3.2,3.2-3.2h35.9
	c1.9,0,3.2,1.5,3.2,2.5V70C57.8,71.2,58.7,72.2,60,72.2z"/>
</svg>
