<?xml version="1.0" encoding="utf-8"?>
<!-- Generator: Adobe Illustrator 22.0.1, SVG Export Plug-In . SVG Version: 6.00 Build 0)  -->
<svg version="1.1" id="Layer_1" xmlns="http://www.w3.org/2000/svg" xmlns:xlink="http://www.w3.org/1999/xlink" x="0px" y="0px"
	 viewBox="0 0 197 60" style="enable-background:new 0 0 197 60;" xml:space="preserve">
<style type="text/css">
	.st0{fill:#EF4137;}
</style>
<g>
	<g>
		<path class="st0" d="M14.5,48.6c-0.2,0-0.5-0.1-1-0.4L2,37.2c-0.5-0.5-0.9-0.9-1.2-1.1c-0.2-0.2-0.5-0.6-0.7-1
			c-0.2-0.4-0.3-0.9-0.3-1.3v-1.6c0-0.5,0.1-0.9,0.3-1.3c0.2-0.4,0.4-0.7,0.6-0.9c0.2-0.2,0.6-0.6,1.2-1.2l11.4-11.3
			c0.3-0.2,0.6-0.3,1-0.3c0.4,0,0.7,0.1,1,0.4c0.2,0.3,0.4,0.6,0.4,1v1.8c0,0.2,0,0.4,0,0.5c0,0.2-0.1,0.3-0.1,0.4
			c0,0.1-0.1,0.3-0.2,0.4c-0.1,0.2-0.2,0.3-0.2,0.3c0,0.1-0.1,0.2-0.3,0.4c-0.2,0.2-0.3,0.3-0.3,0.3c0,0-0.2,0.1-0.4,0.4
			c-0.2,0.2-0.4,0.3-0.4,0.4l-8.8,9.1c-0.2,0.2-0.4,0.4-0.4,0.6s0.1,0.4,0.4,0.6l8.8,8.7c0.1,0.1,0.2,0.2,0.4,0.3
			c0.2,0.2,0.3,0.3,0.4,0.3c0.1,0.1,0.2,0.2,0.3,0.3c0.1,0.1,0.2,0.2,0.3,0.3c0.1,0.1,0.1,0.2,0.2,0.3c0.1,0.1,0.1,0.3,0.2,0.4
			c0,0.1,0.1,0.3,0.1,0.4c0,0.2,0,0.3,0,0.5v2c0,0.4-0.1,0.7-0.4,1C15.1,48.5,14.8,48.6,14.5,48.6z"/>
		<path class="st0" d="M25.5,60c-0.2,0-0.4-0.3-0.4-0.8c0,0,0-0.1,0-0.1c0-0.1,0-0.1,0-0.2l9.2-57.7C34.5,0.4,34.7,0,35.1,0h5.4
			c0.3,0,0.4,0.3,0.4,0.8c0,0.2,0,0.3,0,0.3l-9.2,57.7C31.5,59.6,31.3,60,31,60L25.5,60z"/>
		<path class="st0" d="M49.5,53.3c-0.4,0-0.6-0.1-0.8-0.3c-0.2-0.2-0.2-0.6-0.2-1.2V8.3c0-0.6,0.1-1.1,0.2-1.2
			c0.2-0.2,0.4-0.3,0.8-0.3h5.7c0.4,0,0.6,0.1,0.8,0.3c0.2,0.2,0.2,0.6,0.2,1.2v17.2c0,0.2,0,0.4,0.1,0.5c0.1,0.2,0.2,0.2,0.3,0.2
			h11.8c0.1,0,0.2-0.1,0.3-0.2c0.1-0.2,0.2-0.3,0.2-0.5V8.3c0-0.6,0.1-1,0.3-1.2s0.4-0.3,0.8-0.3h5.8c0.3,0,0.6,0.1,0.7,0.3
			c0.2,0.2,0.2,0.6,0.2,1.2v43.5c0,0.6-0.1,1.1-0.2,1.2c-0.2,0.2-0.4,0.3-0.7,0.3h-5.8c-0.2,0-0.4,0-0.5-0.1
			c-0.1-0.1-0.2-0.2-0.4-0.4c-0.1-0.2-0.2-0.6-0.2-1V32c0-0.5-0.1-0.7-0.4-0.7H56.7c-0.3,0-0.4,0.2-0.4,0.7v19.8
			c0,0.6-0.1,1-0.3,1.2c-0.2,0.2-0.4,0.3-0.8,0.3H49.5z"/>
		<path class="st0" d="M91.3,53.3c-0.3,0-0.6-0.1-0.7-0.3c-0.2-0.2-0.3-0.6-0.3-1.2v-39c0-0.5-0.1-0.8-0.4-0.8h-6.8
			c-0.3,0-0.5,0-0.6,0c-0.1,0-0.2-0.1-0.3-0.3c-0.1-0.2-0.1-0.5-0.1-0.9V8.2c0-0.6,0.1-1,0.2-1.1c0.2-0.2,0.4-0.3,0.8-0.3h22.2
			c0.3,0,0.6,0.1,0.7,0.3c0.2,0.2,0.2,0.6,0.2,1.1v2.6c0,0.5-0.1,0.9-0.2,1c-0.1,0.1-0.4,0.2-0.8,0.2h-6.7c-0.3,0-0.4,0.3-0.4,0.8
			v39c0,0.6-0.1,1.1-0.3,1.3c-0.2,0.2-0.4,0.3-0.8,0.3H91.3z"/>
		<path class="st0" d="M111.8,53.3c-0.6,0-0.9-0.5-0.9-1.6v-0.2l1.8-43c0-1.2,0.4-1.8,1-1.8h6.2c0.4,0,0.7,0.1,1,0.3
			c0.3,0.2,0.5,0.6,0.6,1.2l6.6,30.6c0,0.1,0.1,0.2,0.1,0.2c0.1,0,0.1,0,0.2,0c0.1,0,0.1-0.1,0.1-0.2l6.7-30.5
			c0.2-1,0.7-1.6,1.5-1.6h6.3c0.6,0,0.9,0.7,0.9,1.8l1.8,43v0.2c0,1-0.3,1.6-1,1.6h-4.3c-0.6,0-1-0.6-1-1.7l-1.2-33.3
			c0-0.1,0-0.2-0.1-0.2s-0.1,0-0.2,0.1l-7.1,33.6c-0.2,1-0.7,1.6-1.3,1.6h-2.5c-0.6,0-1.1-0.5-1.3-1.6l-6.9-33.4
			c0-0.1-0.1-0.2-0.2-0.1c0,0,0,0.1,0,0.2l-1.3,33.1c0,1.2-0.3,1.7-0.9,1.7H111.8z"/>
		<path class="st0" d="M155.1,53.3c-0.3,0-0.6-0.1-0.7-0.3c-0.2-0.2-0.2-0.6-0.2-1.2V8.3c0-0.6,0.1-1.1,0.2-1.2
			c0.2-0.2,0.4-0.3,0.7-0.3h5.8c0.3,0,0.6,0.1,0.7,0.3c0.2,0.2,0.2,0.6,0.2,1.2v39.2c0,0.5,0.2,0.7,0.5,0.7h10.2
			c0.3,0,0.6,0.1,0.7,0.2c0.2,0.2,0.2,0.5,0.2,1V52c0,0.5-0.1,0.9-0.2,1.1c-0.2,0.2-0.4,0.2-0.7,0.2H155.1z"/>
		<path class="st0" d="M182.4,48.6c-0.4,0-0.7-0.1-0.9-0.4c-0.2-0.3-0.4-0.6-0.4-1v-1.8c0-0.2,0-0.3,0-0.4c0-0.1,0-0.3,0.1-0.4
			c0-0.1,0.1-0.2,0.1-0.3c0.1-0.1,0.1-0.2,0.1-0.3c0-0.1,0.1-0.2,0.2-0.3c0.1-0.1,0.2-0.2,0.2-0.3c0-0.1,0.1-0.1,0.2-0.3
			c0.1-0.1,0.2-0.2,0.3-0.3c0.1,0,0.2-0.1,0.3-0.3c0.2-0.1,0.3-0.2,0.3-0.3l8.8-9c0.2-0.2,0.3-0.4,0.3-0.6c0-0.2-0.1-0.4-0.4-0.6
			l-8.7-8.7c-0.1-0.1-0.2-0.2-0.5-0.4c-0.2-0.2-0.4-0.3-0.4-0.4c-0.1-0.1-0.2-0.2-0.3-0.3c-0.2-0.2-0.3-0.3-0.3-0.4
			c0-0.1-0.1-0.2-0.2-0.4c-0.1-0.2-0.1-0.3-0.2-0.5c0-0.2,0-0.4,0-0.6v-2.1c0-0.4,0.1-0.7,0.4-1c0.2-0.2,0.5-0.4,0.9-0.4
			c0.3,0,0.6,0.1,1,0.4l11.4,11.1c0.6,0.6,1,1,1.2,1.2c0.2,0.2,0.4,0.5,0.6,0.9c0.2,0.4,0.3,0.9,0.3,1.3v1.6c0,0.2,0,0.3,0,0.5
			c0,0.1-0.1,0.3-0.1,0.4c-0.1,0.2-0.1,0.3-0.1,0.4c0,0.1-0.1,0.2-0.2,0.4c-0.1,0.2-0.2,0.3-0.2,0.3c0,0.1-0.1,0.2-0.3,0.4
			c-0.2,0.2-0.3,0.3-0.3,0.3c0,0-0.2,0.2-0.4,0.4c-0.2,0.2-0.4,0.3-0.4,0.4l-11.3,11.3C183.1,48.5,182.7,48.6,182.4,48.6z"/>
	</g>
</g>
</svg>
