<?xml version="1.0" encoding="utf-8"?>
<!-- Generator: Adobe Illustrator 22.0.1, SVG Export Plug-In . SVG Version: 6.00 Build 0)  -->
<svg version="1.1" id="Layer_1" xmlns="http://www.w3.org/2000/svg" xmlns:xlink="http://www.w3.org/1999/xlink" x="0px" y="0px"
	 viewBox="0 0 40 40" style="enable-background:new 0 0 40 40;" xml:space="preserve">
<style type="text/css">
	.st0{fill:#EF4137;}
</style>
<path class="st0" d="M40,36.7L30.4,27c0.8-1,1.4-2.2,1.9-3.4C36,15,32,5,23.4,1.3C21.3,0.5,19.1,0,16.8,0l0,0C7.5,0,0,7.6,0,17
	c0,6.8,4.1,13,10.3,15.7c5.8,2.5,12.1,1.4,16.8-2.2l9.5,9.6L40,36.7z M4.8,17c0-6.7,5.4-12.2,12.1-12.2c6.7,0,12.1,5.5,12.1,12.2
	s-5.4,12.2-12.1,12.2C10.2,29.2,4.8,23.7,4.8,17z"/>
</svg>
