<?xml version="1.0" encoding="utf-8"?>
<!-- Generator: Adobe Illustrator 22.0.1, SVG Export Plug-In . SVG Version: 6.00 Build 0)  -->
<svg version="1.1" id="Layer_1" xmlns="http://www.w3.org/2000/svg" xmlns:xlink="http://www.w3.org/1999/xlink" x="0px" y="0px"
	 viewBox="0 0 25 30" style="enable-background:new 0 0 25 30;" xml:space="preserve">
<style type="text/css">
	.st0{fill:#3F59A7;}
</style>
<path class="st0" d="M15.9,24.4v-3.5c0-0.8-0.2-1.1-0.7-1.1c-0.3,0-0.5,0.1-0.8,0.4v5.1c0.2,0.2,0.5,0.4,0.8,0.4
	C15.7,25.5,15.9,25.1,15.9,24.4L15.9,24.4z M20.1,21.6h1.5v-0.8c0-0.8-0.3-1.2-0.8-1.2s-0.8,0.4-0.8,1.2V21.6z M7.1,15.6v1.6H5.3
	v9.5H3.6v-9.5H1.9v-1.6H7.1L7.1,15.6z M11.7,18.5v8.3h-1.5v-0.9c-0.6,0.7-1.2,1-1.7,1c-0.5,0-0.8-0.2-1-0.6C7.4,26,7.4,25.6,7.4,25
	v-6.5h1.5v6.1c0,0.4,0,0.6,0,0.6c0,0.2,0.1,0.3,0.3,0.3c0.3,0,0.6-0.2,1-0.7v-6.3L11.7,18.5L11.7,18.5z M17.4,21v3.3
	c0,0.8-0.1,1.3-0.2,1.6c-0.2,0.6-0.6,0.9-1.2,0.9c-0.5,0-1-0.3-1.5-0.9v0.8H13V15.6h1.5v3.6c0.5-0.6,1-0.9,1.5-0.9
	c0.6,0,1,0.3,1.2,0.9C17.4,19.6,17.4,20.2,17.4,21z M23.1,23.9v0.2c0,0.4,0,0.8,0,1c0,0.3-0.2,0.6-0.3,0.9c-0.4,0.6-1,0.9-1.8,0.9
	c-0.8,0-1.4-0.3-1.8-0.9c-0.3-0.4-0.5-1.1-0.5-1.9v-2.9c0-0.9,0.2-1.5,0.5-1.9c0.4-0.6,1-0.9,1.8-0.9s1.4,0.3,1.8,0.9
	c0.3,0.4,0.5,1.1,0.5,1.9v1.7h-3v1.5c0,0.8,0.3,1.2,0.8,1.2c0.4,0,0.6-0.2,0.7-0.6c0,0,0-0.1,0-0.2s0-0.2,0-0.4v-0.5L23.1,23.9
	L23.1,23.9z M12.9,5.3v3.5c0,0.8-0.2,1.2-0.7,1.2s-0.7-0.4-0.7-1.2V5.3c0-0.8,0.2-1.2,0.7-1.2S12.9,4.5,12.9,5.3z M25,21.4
	c0-2.7-0.1-4.6-0.4-5.9c-0.2-0.7-0.5-1.2-1-1.7c-0.5-0.4-1.1-0.7-1.7-0.8c-2.1-0.2-5.2-0.3-9.4-0.3c-4.2,0-7.3,0.1-9.3,0.3
	c-0.7,0.1-1.2,0.3-1.7,0.8c-0.5,0.4-0.8,1-1,1.7C0.2,16.8,0,18.8,0,21.4C0,24,0.2,26,0.5,27.2c0.2,0.6,0.5,1.2,1,1.6
	c0.5,0.5,1.1,0.7,1.7,0.8c2.1,0.2,5.2,0.3,9.4,0.3c4.2,0,7.3-0.1,9.4-0.3c0.7-0.1,1.2-0.3,1.7-0.8s0.8-1,1-1.6
	C24.8,26,25,24,25,21.4z M7.8,6.7l2-6.7H8.2L7,4.4L5.8,0H4l0.5,1.6c0,0,0.2,0.5,0.5,1.6c0.5,1.5,0.9,2.7,1,3.6v4.5h1.7L7.8,6.7
	L7.8,6.7z M14.4,8.5V5.6c0-0.9-0.2-1.5-0.5-2c-0.4-0.6-1-0.9-1.8-0.9c-0.8,0-1.4,0.3-1.8,0.9c-0.3,0.4-0.5,1.1-0.5,2v2.9
	c0,0.9,0.2,1.5,0.5,2c0.4,0.6,1,0.9,1.8,0.9c0.7,0,1.3-0.3,1.8-0.9C14.3,10.1,14.4,9.4,14.4,8.5z M18.5,11.2H20V2.9h-1.5v6.4
	c-0.3,0.5-0.7,0.7-1,0.7c-0.2,0-0.3-0.1-0.4-0.4c0,0,0-0.2,0-0.6V2.9h-1.5v6.6c0,0.6,0,1,0.1,1.2c0.2,0.4,0.5,0.6,1,0.6
	c0.5,0,1.1-0.3,1.8-1L18.5,11.2L18.5,11.2z"/>
</svg>
